G75*
%MOIN*%
%OFA0B0*%
%FSLAX25Y25*%
%IPPOS*%
%LPD*%
%AMOC8*
5,1,8,0,0,1.08239X$1,22.5*
%
%ADD10C,0.13843*%
%ADD11C,0.06600*%
%ADD12C,0.07400*%
%ADD13C,0.07050*%
%ADD14C,0.02205*%
%ADD15R,0.06000X0.06000*%
%ADD16OC8,0.06000*%
%ADD17C,0.08600*%
%ADD18C,0.01000*%
%ADD19C,0.02400*%
%ADD20C,0.03200*%
D10*
X0243657Y0240586D03*
X0313657Y0240586D03*
D11*
X0318657Y0185586D03*
X0318657Y0175586D03*
X0318657Y0165586D03*
X0318657Y0155586D03*
X0318657Y0145586D03*
X0318657Y0135586D03*
X0318657Y0125586D03*
X0318657Y0115586D03*
X0318657Y0105586D03*
X0318657Y0095586D03*
X0318657Y0085586D03*
X0318657Y0075586D03*
X0238657Y0075586D03*
X0238657Y0085586D03*
X0238657Y0095586D03*
X0238657Y0105586D03*
X0238657Y0115586D03*
X0238657Y0125586D03*
X0238657Y0135586D03*
X0238657Y0145586D03*
X0238657Y0155586D03*
X0238657Y0165586D03*
X0238657Y0175586D03*
X0238657Y0185586D03*
X0238657Y0195586D03*
X0238657Y0205586D03*
X0238657Y0215586D03*
X0238657Y0225586D03*
D12*
X0023381Y0033735D03*
X0023381Y0043735D03*
X0023381Y0053735D03*
X0023381Y0063735D03*
X0023381Y0073735D03*
X0023381Y0083735D03*
X0023381Y0103735D03*
X0023381Y0113735D03*
X0023381Y0123735D03*
X0023381Y0133735D03*
X0023381Y0143735D03*
X0023381Y0153735D03*
X0023381Y0163735D03*
X0023381Y0173735D03*
X0213381Y0168735D03*
X0213381Y0178735D03*
X0213381Y0188735D03*
X0213381Y0198735D03*
X0213381Y0208735D03*
X0213381Y0158735D03*
X0213381Y0148735D03*
X0213381Y0138735D03*
X0213381Y0128735D03*
X0213381Y0118735D03*
X0213381Y0103735D03*
X0213381Y0093735D03*
X0213381Y0083735D03*
X0213381Y0073735D03*
X0213381Y0063735D03*
X0213381Y0053735D03*
X0213381Y0043735D03*
X0213381Y0033735D03*
D13*
X0349344Y0039995D02*
X0356394Y0039995D01*
X0356394Y0059680D02*
X0349344Y0059680D01*
X0349344Y0079365D02*
X0356394Y0079365D01*
X0356394Y0099050D02*
X0349344Y0099050D01*
X0349344Y0128184D02*
X0356394Y0128184D01*
X0356394Y0147869D02*
X0349344Y0147869D01*
D14*
X0350842Y0189523D02*
X0350842Y0193617D01*
X0354936Y0193617D01*
X0354936Y0189523D01*
X0350842Y0189523D01*
X0350842Y0191727D02*
X0354936Y0191727D01*
X0350842Y0204090D02*
X0350842Y0208184D01*
X0354936Y0208184D01*
X0354936Y0204090D01*
X0350842Y0204090D01*
X0350842Y0206294D02*
X0354936Y0206294D01*
D15*
X0023460Y0193657D03*
D16*
X0023460Y0203657D03*
D17*
X0352889Y0225428D03*
X0352889Y0170310D03*
D18*
X0238657Y0225086D02*
X0238657Y0225586D01*
D19*
X0224641Y0213617D02*
X0219523Y0218735D01*
X0202594Y0218735D01*
X0067594Y0083735D01*
X0023381Y0083735D01*
X0023381Y0043735D02*
X0180743Y0043735D01*
X0203184Y0021294D01*
X0299838Y0021294D01*
X0336393Y0057850D01*
X0352869Y0041373D01*
X0352869Y0039995D01*
X0369523Y0048854D02*
X0369523Y0028972D01*
X0350231Y0009680D01*
X0199050Y0009680D01*
X0174995Y0033735D01*
X0023381Y0033735D01*
X0213381Y0053735D02*
X0252436Y0054798D01*
X0280546Y0082909D01*
X0280546Y0111649D01*
X0304483Y0135586D01*
X0318657Y0135586D01*
X0318657Y0145586D02*
X0298735Y0145586D01*
X0270704Y0117554D01*
X0270704Y0087633D01*
X0247869Y0064798D01*
X0213381Y0063735D01*
X0318657Y0075586D02*
X0336393Y0057850D01*
X0352869Y0059680D02*
X0358696Y0059680D01*
X0369523Y0048854D01*
X0352869Y0059680D02*
X0326964Y0085586D01*
X0318657Y0085586D01*
X0238657Y0185586D02*
X0233775Y0185586D01*
X0224641Y0194720D01*
X0224641Y0213617D01*
D20*
X0234483Y0215586D02*
X0221885Y0228184D01*
X0170704Y0228184D01*
X0076255Y0133735D01*
X0023381Y0133735D01*
X0016413Y0133735D01*
X0012436Y0129759D01*
X0012436Y0058106D01*
X0016806Y0053735D01*
X0023381Y0053735D01*
X0234483Y0215586D02*
X0238657Y0215586D01*
X0319129Y0215586D01*
X0338814Y0235271D01*
X0365586Y0235271D01*
X0381728Y0219129D01*
X0381728Y0127909D01*
X0352869Y0099050D01*
X0352869Y0147869D02*
X0352869Y0170291D01*
X0352889Y0170310D01*
X0352889Y0191570D01*
X0352889Y0206137D02*
X0314798Y0206137D01*
X0301216Y0192554D01*
X0301216Y0169523D01*
X0305153Y0165586D01*
X0318657Y0165586D01*
X0352889Y0206137D02*
X0352889Y0225428D01*
M02*
