G75*
%MOIN*%
%OFA0B0*%
%FSLAX25Y25*%
%IPPOS*%
%LPD*%
%AMOC8*
5,1,8,0,0,1.08239X$1,22.5*
%
%ADD10C,0.13843*%
%ADD11C,0.06600*%
%ADD12C,0.07400*%
%ADD13C,0.07050*%
%ADD14R,0.06000X0.06000*%
%ADD15OC8,0.06000*%
%ADD16C,0.08600*%
%ADD17C,0.02400*%
%ADD18C,0.01000*%
D10*
X0243657Y0240586D03*
X0313657Y0240586D03*
D11*
X0318657Y0185586D03*
X0318657Y0175586D03*
X0318657Y0165586D03*
X0318657Y0155586D03*
X0318657Y0145586D03*
X0318657Y0135586D03*
X0318657Y0125586D03*
X0318657Y0115586D03*
X0318657Y0105586D03*
X0318657Y0095586D03*
X0318657Y0085586D03*
X0318657Y0075586D03*
X0238657Y0075586D03*
X0238657Y0085586D03*
X0238657Y0095586D03*
X0238657Y0105586D03*
X0238657Y0115586D03*
X0238657Y0125586D03*
X0238657Y0135586D03*
X0238657Y0145586D03*
X0238657Y0155586D03*
X0238657Y0165586D03*
X0238657Y0175586D03*
X0238657Y0185586D03*
X0238657Y0195586D03*
X0238657Y0205586D03*
X0238657Y0215586D03*
X0238657Y0225586D03*
D12*
X0213381Y0208735D03*
X0213381Y0198735D03*
X0213381Y0188735D03*
X0213381Y0178735D03*
X0213381Y0168735D03*
X0213381Y0158735D03*
X0213381Y0148735D03*
X0213381Y0138735D03*
X0213381Y0128735D03*
X0213381Y0118735D03*
X0213381Y0103735D03*
X0213381Y0093735D03*
X0213381Y0083735D03*
X0213381Y0073735D03*
X0213381Y0063735D03*
X0213381Y0053735D03*
X0213381Y0043735D03*
X0213381Y0033735D03*
X0023381Y0033735D03*
X0023381Y0043735D03*
X0023381Y0053735D03*
X0023381Y0063735D03*
X0023381Y0073735D03*
X0023381Y0083735D03*
X0023381Y0103735D03*
X0023381Y0113735D03*
X0023381Y0123735D03*
X0023381Y0133735D03*
X0023381Y0143735D03*
X0023381Y0153735D03*
X0023381Y0163735D03*
X0023381Y0173735D03*
D13*
X0349344Y0147869D02*
X0356394Y0147869D01*
X0356394Y0128184D02*
X0349344Y0128184D01*
X0349344Y0099050D02*
X0356394Y0099050D01*
X0356394Y0079365D02*
X0349344Y0079365D01*
X0349344Y0059680D02*
X0356394Y0059680D01*
X0356394Y0039995D02*
X0349344Y0039995D01*
D14*
X0023460Y0193657D03*
D15*
X0023460Y0203657D03*
D16*
X0352889Y0225428D03*
X0352889Y0170310D03*
D17*
X0373890Y0007400D02*
X0024211Y0007400D01*
X0024211Y0010736D01*
X0024711Y0012602D01*
X0024711Y0015420D01*
X0024211Y0017286D01*
X0024211Y0023508D01*
X0023508Y0024211D01*
X0017286Y0024211D01*
X0015420Y0024711D01*
X0012602Y0024711D01*
X0010736Y0024211D01*
X0007400Y0024211D01*
X0007400Y0232157D01*
X0010736Y0232157D01*
X0012602Y0231657D01*
X0015420Y0231657D01*
X0017286Y0232157D01*
X0023508Y0232157D01*
X0024211Y0232860D01*
X0024211Y0239083D01*
X0024711Y0240949D01*
X0024711Y0243766D01*
X0024211Y0245632D01*
X0024211Y0251855D01*
X0023508Y0252557D01*
X0017286Y0252557D01*
X0015987Y0252906D01*
X0382114Y0252906D01*
X0380815Y0252557D01*
X0374593Y0252557D01*
X0373890Y0251855D01*
X0373890Y0245632D01*
X0373390Y0243766D01*
X0373390Y0240949D01*
X0373890Y0239083D01*
X0373890Y0232860D01*
X0374593Y0232157D01*
X0380815Y0232157D01*
X0382681Y0231657D01*
X0385498Y0231657D01*
X0387364Y0232157D01*
X0390701Y0232157D01*
X0390701Y0024211D01*
X0387364Y0024211D01*
X0385498Y0024711D01*
X0382681Y0024711D01*
X0380815Y0024211D01*
X0374593Y0024211D01*
X0373890Y0023508D01*
X0373890Y0017286D01*
X0373390Y0015420D01*
X0373390Y0012602D01*
X0373890Y0010736D01*
X0373890Y0007400D01*
X0373890Y0009396D02*
X0024211Y0009396D01*
X0024494Y0011794D02*
X0373606Y0011794D01*
X0373390Y0014193D02*
X0024711Y0014193D01*
X0024397Y0016591D02*
X0373704Y0016591D01*
X0373890Y0018990D02*
X0024211Y0018990D01*
X0024211Y0021388D02*
X0373890Y0021388D01*
X0374168Y0023787D02*
X0023932Y0023787D01*
X0024515Y0028035D02*
X0022247Y0028035D01*
X0020152Y0028903D01*
X0018549Y0030507D01*
X0017681Y0032602D01*
X0017681Y0034869D01*
X0018549Y0036964D01*
X0020152Y0038568D01*
X0020557Y0038735D01*
X0020152Y0038903D01*
X0018549Y0040507D01*
X0017681Y0042602D01*
X0017681Y0044869D01*
X0018549Y0046964D01*
X0020152Y0048568D01*
X0020557Y0048735D01*
X0020152Y0048903D01*
X0018549Y0050507D01*
X0017681Y0052602D01*
X0017681Y0054869D01*
X0018549Y0056964D01*
X0020152Y0058568D01*
X0020557Y0058735D01*
X0020152Y0058903D01*
X0018549Y0060507D01*
X0017681Y0062602D01*
X0017681Y0064869D01*
X0018549Y0066964D01*
X0020152Y0068568D01*
X0020557Y0068735D01*
X0020152Y0068903D01*
X0018549Y0070507D01*
X0017681Y0072602D01*
X0017681Y0074869D01*
X0018549Y0076964D01*
X0020152Y0078568D01*
X0020557Y0078735D01*
X0020152Y0078903D01*
X0018549Y0080507D01*
X0017681Y0082602D01*
X0017681Y0084869D01*
X0018549Y0086964D01*
X0020152Y0088568D01*
X0022247Y0089435D01*
X0024515Y0089435D01*
X0026610Y0088568D01*
X0028213Y0086964D01*
X0029081Y0084869D01*
X0029081Y0082602D01*
X0028213Y0080507D01*
X0026610Y0078903D01*
X0026205Y0078735D01*
X0026610Y0078568D01*
X0028213Y0076964D01*
X0029081Y0074869D01*
X0029081Y0072602D01*
X0028213Y0070507D01*
X0026610Y0068903D01*
X0026205Y0068735D01*
X0026610Y0068568D01*
X0028213Y0066964D01*
X0029081Y0064869D01*
X0029081Y0062602D01*
X0028213Y0060507D01*
X0026610Y0058903D01*
X0026205Y0058735D01*
X0026610Y0058568D01*
X0028213Y0056964D01*
X0029081Y0054869D01*
X0029081Y0052602D01*
X0028213Y0050507D01*
X0026610Y0048903D01*
X0026205Y0048735D01*
X0026610Y0048568D01*
X0028213Y0046964D01*
X0029081Y0044869D01*
X0029081Y0042602D01*
X0028213Y0040507D01*
X0026610Y0038903D01*
X0026205Y0038735D01*
X0026610Y0038568D01*
X0028213Y0036964D01*
X0029081Y0034869D01*
X0029081Y0032602D01*
X0028213Y0030507D01*
X0026610Y0028903D01*
X0024515Y0028035D01*
X0025838Y0028584D02*
X0210924Y0028584D01*
X0210152Y0028903D02*
X0212247Y0028035D01*
X0214515Y0028035D01*
X0216610Y0028903D01*
X0218213Y0030507D01*
X0219081Y0032602D01*
X0219081Y0034869D01*
X0218213Y0036964D01*
X0216610Y0038568D01*
X0216205Y0038735D01*
X0216610Y0038903D01*
X0218213Y0040507D01*
X0219081Y0042602D01*
X0219081Y0044869D01*
X0218213Y0046964D01*
X0216610Y0048568D01*
X0216205Y0048735D01*
X0216610Y0048903D01*
X0218213Y0050507D01*
X0219081Y0052602D01*
X0219081Y0054869D01*
X0218213Y0056964D01*
X0216610Y0058568D01*
X0216205Y0058735D01*
X0216610Y0058903D01*
X0218213Y0060507D01*
X0219081Y0062602D01*
X0219081Y0064869D01*
X0218213Y0066964D01*
X0216610Y0068568D01*
X0216205Y0068735D01*
X0216610Y0068903D01*
X0218213Y0070507D01*
X0219081Y0072602D01*
X0219081Y0074869D01*
X0218213Y0076964D01*
X0216610Y0078568D01*
X0216205Y0078735D01*
X0216610Y0078903D01*
X0218213Y0080507D01*
X0219081Y0082602D01*
X0219081Y0084869D01*
X0218213Y0086964D01*
X0216610Y0088568D01*
X0216205Y0088735D01*
X0216610Y0088903D01*
X0218213Y0090507D01*
X0219081Y0092602D01*
X0219081Y0094869D01*
X0218213Y0096964D01*
X0216610Y0098568D01*
X0216205Y0098735D01*
X0216610Y0098903D01*
X0218213Y0100507D01*
X0219081Y0102602D01*
X0219081Y0104869D01*
X0218213Y0106964D01*
X0216610Y0108568D01*
X0214515Y0109435D01*
X0212247Y0109435D01*
X0210152Y0108568D01*
X0208549Y0106964D01*
X0207681Y0104869D01*
X0207681Y0102602D01*
X0208549Y0100507D01*
X0210152Y0098903D01*
X0210557Y0098735D01*
X0210152Y0098568D01*
X0208549Y0096964D01*
X0207681Y0094869D01*
X0207681Y0092602D01*
X0208549Y0090507D01*
X0210152Y0088903D01*
X0210557Y0088735D01*
X0210152Y0088568D01*
X0208549Y0086964D01*
X0207681Y0084869D01*
X0207681Y0082602D01*
X0208549Y0080507D01*
X0210152Y0078903D01*
X0210557Y0078735D01*
X0210152Y0078568D01*
X0208549Y0076964D01*
X0207681Y0074869D01*
X0207681Y0072602D01*
X0208549Y0070507D01*
X0210152Y0068903D01*
X0210557Y0068735D01*
X0210152Y0068568D01*
X0208549Y0066964D01*
X0207681Y0064869D01*
X0207681Y0062602D01*
X0208549Y0060507D01*
X0210152Y0058903D01*
X0210557Y0058735D01*
X0210152Y0058568D01*
X0208549Y0056964D01*
X0207681Y0054869D01*
X0207681Y0052602D01*
X0208549Y0050507D01*
X0210152Y0048903D01*
X0210557Y0048735D01*
X0210152Y0048568D01*
X0208549Y0046964D01*
X0207681Y0044869D01*
X0207681Y0042602D01*
X0208549Y0040507D01*
X0210152Y0038903D01*
X0210557Y0038735D01*
X0210152Y0038568D01*
X0208549Y0036964D01*
X0207681Y0034869D01*
X0207681Y0032602D01*
X0208549Y0030507D01*
X0210152Y0028903D01*
X0208352Y0030982D02*
X0028410Y0030982D01*
X0029081Y0033381D02*
X0207681Y0033381D01*
X0208058Y0035779D02*
X0028704Y0035779D01*
X0027000Y0038178D02*
X0209762Y0038178D01*
X0208520Y0040576D02*
X0028242Y0040576D01*
X0029081Y0042975D02*
X0207681Y0042975D01*
X0207890Y0045373D02*
X0028872Y0045373D01*
X0027406Y0047772D02*
X0209356Y0047772D01*
X0208885Y0050170D02*
X0027877Y0050170D01*
X0029067Y0052569D02*
X0207695Y0052569D01*
X0207722Y0054967D02*
X0029040Y0054967D01*
X0027812Y0057366D02*
X0208950Y0057366D01*
X0209291Y0059764D02*
X0027471Y0059764D01*
X0028899Y0062163D02*
X0207863Y0062163D01*
X0207681Y0064561D02*
X0029081Y0064561D01*
X0028215Y0066960D02*
X0208547Y0066960D01*
X0209697Y0069358D02*
X0027065Y0069358D01*
X0028731Y0071757D02*
X0208031Y0071757D01*
X0207681Y0074155D02*
X0029081Y0074155D01*
X0028383Y0076554D02*
X0208379Y0076554D01*
X0210103Y0078952D02*
X0026659Y0078952D01*
X0028563Y0081351D02*
X0208199Y0081351D01*
X0207681Y0083749D02*
X0029081Y0083749D01*
X0028551Y0086148D02*
X0208211Y0086148D01*
X0210131Y0088546D02*
X0026631Y0088546D01*
X0020131Y0088546D02*
X0007400Y0088546D01*
X0007400Y0086148D02*
X0018211Y0086148D01*
X0017681Y0083749D02*
X0007400Y0083749D01*
X0007400Y0081351D02*
X0018199Y0081351D01*
X0020103Y0078952D02*
X0007400Y0078952D01*
X0007400Y0076554D02*
X0018379Y0076554D01*
X0017681Y0074155D02*
X0007400Y0074155D01*
X0007400Y0071757D02*
X0018031Y0071757D01*
X0019697Y0069358D02*
X0007400Y0069358D01*
X0007400Y0066960D02*
X0018547Y0066960D01*
X0017681Y0064561D02*
X0007400Y0064561D01*
X0007400Y0062163D02*
X0017863Y0062163D01*
X0019291Y0059764D02*
X0007400Y0059764D01*
X0007400Y0057366D02*
X0018950Y0057366D01*
X0017722Y0054967D02*
X0007400Y0054967D01*
X0007400Y0052569D02*
X0017695Y0052569D01*
X0018885Y0050170D02*
X0007400Y0050170D01*
X0007400Y0047772D02*
X0019356Y0047772D01*
X0017890Y0045373D02*
X0007400Y0045373D01*
X0007400Y0042975D02*
X0017681Y0042975D01*
X0018520Y0040576D02*
X0007400Y0040576D01*
X0007400Y0038178D02*
X0019762Y0038178D01*
X0018058Y0035779D02*
X0007400Y0035779D01*
X0007400Y0033381D02*
X0017681Y0033381D01*
X0018352Y0030982D02*
X0007400Y0030982D01*
X0007400Y0028584D02*
X0020924Y0028584D01*
X0007400Y0026185D02*
X0390701Y0026185D01*
X0390701Y0028584D02*
X0215838Y0028584D01*
X0218410Y0030982D02*
X0390701Y0030982D01*
X0390701Y0033381D02*
X0219081Y0033381D01*
X0218704Y0035779D02*
X0345747Y0035779D01*
X0346215Y0035311D02*
X0348245Y0034470D01*
X0357493Y0034470D01*
X0359524Y0035311D01*
X0361078Y0036866D01*
X0361919Y0038896D01*
X0361919Y0041094D01*
X0361078Y0043125D01*
X0359524Y0044679D01*
X0357493Y0045520D01*
X0348245Y0045520D01*
X0346215Y0044679D01*
X0344660Y0043125D01*
X0343819Y0041094D01*
X0343819Y0038896D01*
X0344660Y0036866D01*
X0346215Y0035311D01*
X0344117Y0038178D02*
X0217000Y0038178D01*
X0218242Y0040576D02*
X0343819Y0040576D01*
X0344598Y0042975D02*
X0219081Y0042975D01*
X0218872Y0045373D02*
X0347890Y0045373D01*
X0357848Y0045373D02*
X0390701Y0045373D01*
X0390701Y0042975D02*
X0361140Y0042975D01*
X0361919Y0040576D02*
X0390701Y0040576D01*
X0390701Y0038178D02*
X0361622Y0038178D01*
X0359992Y0035779D02*
X0390701Y0035779D01*
X0390701Y0047772D02*
X0217406Y0047772D01*
X0217877Y0050170D02*
X0390701Y0050170D01*
X0390701Y0052569D02*
X0320065Y0052569D01*
X0319920Y0052424D02*
X0321819Y0054323D01*
X0323162Y0056649D01*
X0323857Y0059243D01*
X0323857Y0061929D01*
X0323162Y0064523D01*
X0321819Y0066849D01*
X0319920Y0068748D01*
X0317594Y0070091D01*
X0315000Y0070786D01*
X0312314Y0070786D01*
X0309720Y0070091D01*
X0307394Y0068748D01*
X0305495Y0066849D01*
X0304152Y0064523D01*
X0303457Y0061929D01*
X0303457Y0059243D01*
X0304152Y0056649D01*
X0305495Y0054323D01*
X0307394Y0052424D01*
X0309720Y0051081D01*
X0312314Y0050386D01*
X0315000Y0050386D01*
X0317594Y0051081D01*
X0319920Y0052424D01*
X0322191Y0054967D02*
X0346285Y0054967D01*
X0346215Y0054996D02*
X0348245Y0054155D01*
X0357493Y0054155D01*
X0359524Y0054996D01*
X0361078Y0056551D01*
X0361919Y0058581D01*
X0361919Y0060779D01*
X0361078Y0062810D01*
X0359524Y0064364D01*
X0357493Y0065205D01*
X0348245Y0065205D01*
X0346215Y0064364D01*
X0344660Y0062810D01*
X0343819Y0060779D01*
X0343819Y0058581D01*
X0344660Y0056551D01*
X0346215Y0054996D01*
X0344323Y0057366D02*
X0323354Y0057366D01*
X0323857Y0059764D02*
X0343819Y0059764D01*
X0344392Y0062163D02*
X0323794Y0062163D01*
X0323139Y0064561D02*
X0346691Y0064561D01*
X0348004Y0073781D02*
X0348894Y0073640D01*
X0352869Y0073640D01*
X0352869Y0079365D01*
X0352869Y0079365D01*
X0343619Y0079365D01*
X0343619Y0078915D01*
X0343760Y0078025D01*
X0344039Y0077168D01*
X0344448Y0076365D01*
X0344977Y0075636D01*
X0345615Y0074999D01*
X0346344Y0074469D01*
X0347147Y0074060D01*
X0348004Y0073781D01*
X0346959Y0074155D02*
X0323801Y0074155D01*
X0323957Y0074532D02*
X0323957Y0076640D01*
X0323150Y0078588D01*
X0321659Y0080079D01*
X0320435Y0080586D01*
X0321659Y0081093D01*
X0323150Y0082584D01*
X0323957Y0084532D01*
X0323957Y0086640D01*
X0323150Y0088588D01*
X0321659Y0090079D01*
X0320435Y0090586D01*
X0321659Y0091093D01*
X0323150Y0092584D01*
X0323957Y0094532D01*
X0323957Y0096640D01*
X0323150Y0098588D01*
X0321659Y0100079D01*
X0320435Y0100586D01*
X0321659Y0101093D01*
X0323150Y0102584D01*
X0323957Y0104532D01*
X0323957Y0106640D01*
X0323150Y0108588D01*
X0321659Y0110079D01*
X0320435Y0110586D01*
X0321659Y0111093D01*
X0323150Y0112584D01*
X0323957Y0114532D01*
X0323957Y0116640D01*
X0323150Y0118588D01*
X0321659Y0120079D01*
X0320435Y0120586D01*
X0321659Y0121093D01*
X0323150Y0122584D01*
X0323957Y0124532D01*
X0323957Y0126640D01*
X0323150Y0128588D01*
X0321659Y0130079D01*
X0320435Y0130586D01*
X0321659Y0131093D01*
X0323150Y0132584D01*
X0323957Y0134532D01*
X0323957Y0136640D01*
X0323150Y0138588D01*
X0321659Y0140079D01*
X0320435Y0140586D01*
X0321659Y0141093D01*
X0323150Y0142584D01*
X0323957Y0144532D01*
X0323957Y0146640D01*
X0323150Y0148588D01*
X0321659Y0150079D01*
X0320435Y0150586D01*
X0321659Y0151093D01*
X0323150Y0152584D01*
X0323957Y0154532D01*
X0323957Y0156640D01*
X0323150Y0158588D01*
X0321659Y0160079D01*
X0320435Y0160586D01*
X0321659Y0161093D01*
X0323150Y0162584D01*
X0323957Y0164532D01*
X0323957Y0166640D01*
X0323150Y0168588D01*
X0321659Y0170079D01*
X0320435Y0170586D01*
X0321659Y0171093D01*
X0323150Y0172584D01*
X0323957Y0174532D01*
X0323957Y0176640D01*
X0323150Y0178588D01*
X0321659Y0180079D01*
X0320435Y0180586D01*
X0321659Y0181093D01*
X0323150Y0182584D01*
X0323957Y0184532D01*
X0323957Y0186640D01*
X0323150Y0188588D01*
X0321659Y0190079D01*
X0319711Y0190886D01*
X0317602Y0190886D01*
X0315654Y0190079D01*
X0314164Y0188588D01*
X0313357Y0186640D01*
X0313357Y0184532D01*
X0314164Y0182584D01*
X0315654Y0181093D01*
X0316878Y0180586D01*
X0315654Y0180079D01*
X0314164Y0178588D01*
X0313357Y0176640D01*
X0313357Y0174532D01*
X0314164Y0172584D01*
X0315654Y0171093D01*
X0316878Y0170586D01*
X0315654Y0170079D01*
X0314164Y0168588D01*
X0313357Y0166640D01*
X0313357Y0164532D01*
X0314164Y0162584D01*
X0315654Y0161093D01*
X0316878Y0160586D01*
X0315654Y0160079D01*
X0314164Y0158588D01*
X0313357Y0156640D01*
X0313357Y0154532D01*
X0314164Y0152584D01*
X0315654Y0151093D01*
X0316878Y0150586D01*
X0315654Y0150079D01*
X0314164Y0148588D01*
X0313357Y0146640D01*
X0313357Y0144532D01*
X0314164Y0142584D01*
X0315654Y0141093D01*
X0316878Y0140586D01*
X0315654Y0140079D01*
X0314164Y0138588D01*
X0313357Y0136640D01*
X0313357Y0134532D01*
X0314164Y0132584D01*
X0315654Y0131093D01*
X0316878Y0130586D01*
X0315654Y0130079D01*
X0314164Y0128588D01*
X0313357Y0126640D01*
X0313357Y0124532D01*
X0314164Y0122584D01*
X0315654Y0121093D01*
X0316878Y0120586D01*
X0315654Y0120079D01*
X0314164Y0118588D01*
X0313357Y0116640D01*
X0313357Y0114532D01*
X0314164Y0112584D01*
X0315654Y0111093D01*
X0316878Y0110586D01*
X0315654Y0110079D01*
X0314164Y0108588D01*
X0313357Y0106640D01*
X0313357Y0104532D01*
X0314164Y0102584D01*
X0315654Y0101093D01*
X0316878Y0100586D01*
X0315654Y0100079D01*
X0314164Y0098588D01*
X0313357Y0096640D01*
X0313357Y0094532D01*
X0314164Y0092584D01*
X0315654Y0091093D01*
X0316878Y0090586D01*
X0315654Y0090079D01*
X0314164Y0088588D01*
X0313357Y0086640D01*
X0313357Y0084532D01*
X0314164Y0082584D01*
X0315654Y0081093D01*
X0316878Y0080586D01*
X0315654Y0080079D01*
X0314164Y0078588D01*
X0313357Y0076640D01*
X0313357Y0074532D01*
X0314164Y0072584D01*
X0315654Y0071093D01*
X0317602Y0070286D01*
X0319711Y0070286D01*
X0321659Y0071093D01*
X0323150Y0072584D01*
X0323957Y0074532D01*
X0323957Y0076554D02*
X0344352Y0076554D01*
X0343619Y0078952D02*
X0322785Y0078952D01*
X0321917Y0081351D02*
X0343970Y0081351D01*
X0344039Y0081563D02*
X0343760Y0080706D01*
X0343619Y0079816D01*
X0343619Y0079365D01*
X0352869Y0079365D01*
X0352869Y0079365D01*
X0352869Y0073640D01*
X0356845Y0073640D01*
X0357735Y0073781D01*
X0358592Y0074060D01*
X0359395Y0074469D01*
X0360124Y0074999D01*
X0360761Y0075636D01*
X0361291Y0076365D01*
X0361700Y0077168D01*
X0361978Y0078025D01*
X0362119Y0078915D01*
X0362119Y0079365D01*
X0352869Y0079365D01*
X0352869Y0079365D01*
X0352869Y0085090D01*
X0348894Y0085090D01*
X0348004Y0084949D01*
X0347147Y0084671D01*
X0346344Y0084262D01*
X0345615Y0083732D01*
X0344977Y0083095D01*
X0344448Y0082366D01*
X0344039Y0081563D01*
X0345638Y0083749D02*
X0323633Y0083749D01*
X0323957Y0086148D02*
X0390701Y0086148D01*
X0390701Y0088546D02*
X0323167Y0088546D01*
X0321302Y0090945D02*
X0390701Y0090945D01*
X0390701Y0093343D02*
X0323465Y0093343D01*
X0323957Y0095742D02*
X0344839Y0095742D01*
X0344660Y0095921D02*
X0346215Y0094367D01*
X0348245Y0093525D01*
X0357493Y0093525D01*
X0359524Y0094367D01*
X0361078Y0095921D01*
X0361919Y0097951D01*
X0361919Y0100149D01*
X0361078Y0102180D01*
X0359524Y0103734D01*
X0357493Y0104575D01*
X0348245Y0104575D01*
X0346215Y0103734D01*
X0344660Y0102180D01*
X0343819Y0100149D01*
X0343819Y0097951D01*
X0344660Y0095921D01*
X0343819Y0098140D02*
X0323335Y0098140D01*
X0320548Y0100539D02*
X0343981Y0100539D01*
X0345418Y0102937D02*
X0323296Y0102937D01*
X0323957Y0105336D02*
X0390701Y0105336D01*
X0390701Y0107734D02*
X0323503Y0107734D01*
X0321528Y0110133D02*
X0390701Y0110133D01*
X0390701Y0112532D02*
X0323098Y0112532D01*
X0323957Y0114930D02*
X0390701Y0114930D01*
X0390701Y0117329D02*
X0323672Y0117329D01*
X0322011Y0119727D02*
X0390701Y0119727D01*
X0390701Y0122126D02*
X0322692Y0122126D01*
X0323954Y0124524D02*
X0344927Y0124524D01*
X0344977Y0124455D02*
X0344448Y0125184D01*
X0344039Y0125987D01*
X0343760Y0126844D01*
X0343619Y0127734D01*
X0343619Y0128184D01*
X0352869Y0128184D01*
X0352869Y0128184D01*
X0352869Y0128184D01*
X0352869Y0122459D01*
X0348894Y0122459D01*
X0348004Y0122600D01*
X0347147Y0122879D01*
X0346344Y0123288D01*
X0345615Y0123817D01*
X0344977Y0124455D01*
X0343748Y0126923D02*
X0323840Y0126923D01*
X0322417Y0129321D02*
X0343728Y0129321D01*
X0343760Y0129525D02*
X0343619Y0128635D01*
X0343619Y0128184D01*
X0352869Y0128184D01*
X0352869Y0122459D01*
X0356845Y0122459D01*
X0357735Y0122600D01*
X0358592Y0122879D01*
X0359395Y0123288D01*
X0360124Y0123817D01*
X0360761Y0124455D01*
X0361291Y0125184D01*
X0361700Y0125987D01*
X0361978Y0126844D01*
X0362119Y0127734D01*
X0362119Y0128184D01*
X0352869Y0128184D01*
X0352869Y0133909D01*
X0348894Y0133909D01*
X0348004Y0133768D01*
X0347147Y0133490D01*
X0346344Y0133081D01*
X0345615Y0132551D01*
X0344977Y0131914D01*
X0344448Y0131185D01*
X0344039Y0130382D01*
X0343760Y0129525D01*
X0344836Y0131720D02*
X0322286Y0131720D01*
X0323785Y0134118D02*
X0390701Y0134118D01*
X0390701Y0131720D02*
X0360902Y0131720D01*
X0360761Y0131914D02*
X0360124Y0132551D01*
X0359395Y0133081D01*
X0358592Y0133490D01*
X0357735Y0133768D01*
X0356845Y0133909D01*
X0352869Y0133909D01*
X0352869Y0128184D01*
X0352869Y0128184D01*
X0352869Y0128184D01*
X0362119Y0128184D01*
X0362119Y0128635D01*
X0361978Y0129525D01*
X0361700Y0130382D01*
X0361291Y0131185D01*
X0360761Y0131914D01*
X0362011Y0129321D02*
X0390701Y0129321D01*
X0390701Y0126923D02*
X0361991Y0126923D01*
X0360812Y0124524D02*
X0390701Y0124524D01*
X0390701Y0136517D02*
X0323957Y0136517D01*
X0322823Y0138915D02*
X0390701Y0138915D01*
X0390701Y0141314D02*
X0321880Y0141314D01*
X0323617Y0143712D02*
X0345688Y0143712D01*
X0346215Y0143185D02*
X0348245Y0142344D01*
X0357493Y0142344D01*
X0359524Y0143185D01*
X0361078Y0144740D01*
X0361919Y0146770D01*
X0361919Y0148968D01*
X0361078Y0150999D01*
X0359524Y0152553D01*
X0357493Y0153394D01*
X0348245Y0153394D01*
X0346215Y0152553D01*
X0344660Y0150999D01*
X0343819Y0148968D01*
X0343819Y0146770D01*
X0344660Y0144740D01*
X0346215Y0143185D01*
X0344093Y0146111D02*
X0323957Y0146111D01*
X0323182Y0148509D02*
X0343819Y0148509D01*
X0344623Y0150908D02*
X0321212Y0150908D01*
X0323449Y0153306D02*
X0348033Y0153306D01*
X0357706Y0153306D02*
X0390701Y0153306D01*
X0390701Y0150908D02*
X0361116Y0150908D01*
X0361919Y0148509D02*
X0390701Y0148509D01*
X0390701Y0146111D02*
X0361646Y0146111D01*
X0360051Y0143712D02*
X0390701Y0143712D01*
X0390701Y0155705D02*
X0323957Y0155705D01*
X0323351Y0158103D02*
X0390701Y0158103D01*
X0390701Y0160502D02*
X0320638Y0160502D01*
X0323281Y0162900D02*
X0390701Y0162900D01*
X0390701Y0165299D02*
X0356787Y0165299D01*
X0356458Y0164969D02*
X0358230Y0166742D01*
X0359189Y0169057D01*
X0359189Y0171563D01*
X0358230Y0173879D01*
X0356458Y0175651D01*
X0354142Y0176610D01*
X0351636Y0176610D01*
X0349320Y0175651D01*
X0347548Y0173879D01*
X0346589Y0171563D01*
X0346589Y0169057D01*
X0347548Y0166742D01*
X0349320Y0164969D01*
X0351636Y0164010D01*
X0354142Y0164010D01*
X0356458Y0164969D01*
X0358626Y0167697D02*
X0390701Y0167697D01*
X0390701Y0170096D02*
X0359189Y0170096D01*
X0358803Y0172494D02*
X0390701Y0172494D01*
X0390701Y0174893D02*
X0357216Y0174893D01*
X0348562Y0174893D02*
X0323957Y0174893D01*
X0323687Y0177291D02*
X0390701Y0177291D01*
X0390701Y0179690D02*
X0322048Y0179690D01*
X0322655Y0182088D02*
X0390701Y0182088D01*
X0390701Y0184487D02*
X0323938Y0184487D01*
X0323855Y0186885D02*
X0390701Y0186885D01*
X0390701Y0189284D02*
X0322454Y0189284D01*
X0314859Y0189284D02*
X0242454Y0189284D01*
X0243150Y0188588D02*
X0241659Y0190079D01*
X0240713Y0190471D01*
X0240768Y0190489D01*
X0241539Y0190882D01*
X0242240Y0191391D01*
X0242852Y0192003D01*
X0243361Y0192703D01*
X0243754Y0193475D01*
X0244021Y0194298D01*
X0244157Y0195153D01*
X0244157Y0195586D01*
X0244157Y0196019D01*
X0244021Y0196874D01*
X0243754Y0197697D01*
X0243361Y0198468D01*
X0242852Y0199169D01*
X0242240Y0199781D01*
X0241539Y0200290D01*
X0240768Y0200683D01*
X0240713Y0200701D01*
X0241659Y0201093D01*
X0243150Y0202584D01*
X0243957Y0204532D01*
X0243957Y0206640D01*
X0243150Y0208588D01*
X0241659Y0210079D01*
X0240435Y0210586D01*
X0241659Y0211093D01*
X0243150Y0212584D01*
X0243957Y0214532D01*
X0243957Y0216640D01*
X0243150Y0218588D01*
X0241659Y0220079D01*
X0240435Y0220586D01*
X0241659Y0221093D01*
X0243150Y0222584D01*
X0243957Y0224532D01*
X0243957Y0226640D01*
X0243150Y0228588D01*
X0241659Y0230079D01*
X0239711Y0230886D01*
X0237602Y0230886D01*
X0235654Y0230079D01*
X0234164Y0228588D01*
X0233357Y0226640D01*
X0233357Y0224532D01*
X0234164Y0222584D01*
X0235654Y0221093D01*
X0236878Y0220586D01*
X0235654Y0220079D01*
X0234164Y0218588D01*
X0233357Y0216640D01*
X0233357Y0214532D01*
X0234164Y0212584D01*
X0235654Y0211093D01*
X0236878Y0210586D01*
X0235654Y0210079D01*
X0234164Y0208588D01*
X0233357Y0206640D01*
X0233357Y0204532D01*
X0234164Y0202584D01*
X0235654Y0201093D01*
X0236601Y0200701D01*
X0236545Y0200683D01*
X0235774Y0200290D01*
X0235074Y0199781D01*
X0234462Y0199169D01*
X0233953Y0198468D01*
X0233560Y0197697D01*
X0233292Y0196874D01*
X0233157Y0196019D01*
X0233157Y0195586D01*
X0238657Y0195586D01*
X0244157Y0195586D01*
X0238657Y0195586D01*
X0238657Y0195586D01*
X0238657Y0195586D01*
X0233157Y0195586D01*
X0233157Y0195153D01*
X0233292Y0194298D01*
X0233560Y0193475D01*
X0233953Y0192703D01*
X0234462Y0192003D01*
X0235074Y0191391D01*
X0235774Y0190882D01*
X0236545Y0190489D01*
X0236601Y0190471D01*
X0235654Y0190079D01*
X0234164Y0188588D01*
X0233357Y0186640D01*
X0233357Y0184532D01*
X0234164Y0182584D01*
X0235654Y0181093D01*
X0236878Y0180586D01*
X0235654Y0180079D01*
X0234164Y0178588D01*
X0233357Y0176640D01*
X0233357Y0174532D01*
X0234164Y0172584D01*
X0235654Y0171093D01*
X0236878Y0170586D01*
X0235654Y0170079D01*
X0234164Y0168588D01*
X0233357Y0166640D01*
X0233357Y0164532D01*
X0234164Y0162584D01*
X0235654Y0161093D01*
X0236878Y0160586D01*
X0235654Y0160079D01*
X0234164Y0158588D01*
X0233357Y0156640D01*
X0233357Y0154532D01*
X0234164Y0152584D01*
X0235654Y0151093D01*
X0236878Y0150586D01*
X0235654Y0150079D01*
X0234164Y0148588D01*
X0233357Y0146640D01*
X0233357Y0144532D01*
X0234164Y0142584D01*
X0235654Y0141093D01*
X0236878Y0140586D01*
X0235654Y0140079D01*
X0234164Y0138588D01*
X0233357Y0136640D01*
X0233357Y0134532D01*
X0234164Y0132584D01*
X0235654Y0131093D01*
X0236878Y0130586D01*
X0235654Y0130079D01*
X0234164Y0128588D01*
X0233357Y0126640D01*
X0233357Y0124532D01*
X0234164Y0122584D01*
X0235654Y0121093D01*
X0236878Y0120586D01*
X0235654Y0120079D01*
X0234164Y0118588D01*
X0233357Y0116640D01*
X0233357Y0114532D01*
X0234164Y0112584D01*
X0235654Y0111093D01*
X0236878Y0110586D01*
X0235654Y0110079D01*
X0234164Y0108588D01*
X0233357Y0106640D01*
X0233357Y0104532D01*
X0234164Y0102584D01*
X0235654Y0101093D01*
X0236878Y0100586D01*
X0235654Y0100079D01*
X0234164Y0098588D01*
X0233357Y0096640D01*
X0233357Y0094532D01*
X0234164Y0092584D01*
X0235654Y0091093D01*
X0236878Y0090586D01*
X0235654Y0090079D01*
X0234164Y0088588D01*
X0233357Y0086640D01*
X0233357Y0084532D01*
X0234164Y0082584D01*
X0235654Y0081093D01*
X0236878Y0080586D01*
X0235654Y0080079D01*
X0234164Y0078588D01*
X0233357Y0076640D01*
X0233357Y0074532D01*
X0234164Y0072584D01*
X0235654Y0071093D01*
X0237602Y0070286D01*
X0239711Y0070286D01*
X0241659Y0071093D01*
X0243150Y0072584D01*
X0243957Y0074532D01*
X0243957Y0076640D01*
X0243150Y0078588D01*
X0241659Y0080079D01*
X0240435Y0080586D01*
X0241659Y0081093D01*
X0243150Y0082584D01*
X0243957Y0084532D01*
X0243957Y0086640D01*
X0243150Y0088588D01*
X0241659Y0090079D01*
X0240435Y0090586D01*
X0241659Y0091093D01*
X0243150Y0092584D01*
X0243957Y0094532D01*
X0243957Y0096640D01*
X0243150Y0098588D01*
X0241659Y0100079D01*
X0240435Y0100586D01*
X0241659Y0101093D01*
X0243150Y0102584D01*
X0243957Y0104532D01*
X0243957Y0106640D01*
X0243150Y0108588D01*
X0241659Y0110079D01*
X0240435Y0110586D01*
X0241659Y0111093D01*
X0243150Y0112584D01*
X0243957Y0114532D01*
X0243957Y0116640D01*
X0243150Y0118588D01*
X0241659Y0120079D01*
X0240435Y0120586D01*
X0241659Y0121093D01*
X0243150Y0122584D01*
X0243957Y0124532D01*
X0243957Y0126640D01*
X0243150Y0128588D01*
X0241659Y0130079D01*
X0240435Y0130586D01*
X0241659Y0131093D01*
X0243150Y0132584D01*
X0243957Y0134532D01*
X0243957Y0136640D01*
X0243150Y0138588D01*
X0241659Y0140079D01*
X0240435Y0140586D01*
X0241659Y0141093D01*
X0243150Y0142584D01*
X0243957Y0144532D01*
X0243957Y0146640D01*
X0243150Y0148588D01*
X0241659Y0150079D01*
X0240435Y0150586D01*
X0241659Y0151093D01*
X0243150Y0152584D01*
X0243957Y0154532D01*
X0243957Y0156640D01*
X0243150Y0158588D01*
X0241659Y0160079D01*
X0240435Y0160586D01*
X0241659Y0161093D01*
X0243150Y0162584D01*
X0243957Y0164532D01*
X0243957Y0166640D01*
X0243150Y0168588D01*
X0241659Y0170079D01*
X0240435Y0170586D01*
X0241659Y0171093D01*
X0243150Y0172584D01*
X0243957Y0174532D01*
X0243957Y0176640D01*
X0243150Y0178588D01*
X0241659Y0180079D01*
X0240435Y0180586D01*
X0241659Y0181093D01*
X0243150Y0182584D01*
X0243957Y0184532D01*
X0243957Y0186640D01*
X0243150Y0188588D01*
X0243855Y0186885D02*
X0313458Y0186885D01*
X0313375Y0184487D02*
X0243938Y0184487D01*
X0242655Y0182088D02*
X0314659Y0182088D01*
X0315265Y0179690D02*
X0242048Y0179690D01*
X0243687Y0177291D02*
X0313626Y0177291D01*
X0313357Y0174893D02*
X0243957Y0174893D01*
X0243060Y0172494D02*
X0314253Y0172494D01*
X0315695Y0170096D02*
X0241618Y0170096D01*
X0243519Y0167697D02*
X0313795Y0167697D01*
X0313357Y0165299D02*
X0243957Y0165299D01*
X0243281Y0162900D02*
X0314032Y0162900D01*
X0316675Y0160502D02*
X0240638Y0160502D01*
X0243351Y0158103D02*
X0313963Y0158103D01*
X0313357Y0155705D02*
X0243957Y0155705D01*
X0243449Y0153306D02*
X0313864Y0153306D01*
X0316101Y0150908D02*
X0241212Y0150908D01*
X0243182Y0148509D02*
X0314131Y0148509D01*
X0313357Y0146111D02*
X0243957Y0146111D01*
X0243617Y0143712D02*
X0313696Y0143712D01*
X0315434Y0141314D02*
X0241880Y0141314D01*
X0242823Y0138915D02*
X0314491Y0138915D01*
X0313357Y0136517D02*
X0243957Y0136517D01*
X0243785Y0134118D02*
X0313528Y0134118D01*
X0315028Y0131720D02*
X0242286Y0131720D01*
X0242417Y0129321D02*
X0314897Y0129321D01*
X0313474Y0126923D02*
X0243840Y0126923D01*
X0243954Y0124524D02*
X0313360Y0124524D01*
X0314622Y0122126D02*
X0242692Y0122126D01*
X0242011Y0119727D02*
X0315303Y0119727D01*
X0313642Y0117329D02*
X0243672Y0117329D01*
X0243957Y0114930D02*
X0313357Y0114930D01*
X0314216Y0112532D02*
X0243098Y0112532D01*
X0241528Y0110133D02*
X0315785Y0110133D01*
X0313810Y0107734D02*
X0243503Y0107734D01*
X0243957Y0105336D02*
X0313357Y0105336D01*
X0314017Y0102937D02*
X0243296Y0102937D01*
X0240548Y0100539D02*
X0316765Y0100539D01*
X0313978Y0098140D02*
X0243335Y0098140D01*
X0243957Y0095742D02*
X0313357Y0095742D01*
X0313849Y0093343D02*
X0243465Y0093343D01*
X0241302Y0090945D02*
X0316011Y0090945D01*
X0314146Y0088546D02*
X0243167Y0088546D01*
X0243957Y0086148D02*
X0313357Y0086148D01*
X0313681Y0083749D02*
X0243633Y0083749D01*
X0241917Y0081351D02*
X0315396Y0081351D01*
X0314528Y0078952D02*
X0242785Y0078952D01*
X0243957Y0076554D02*
X0313357Y0076554D01*
X0313513Y0074155D02*
X0243801Y0074155D01*
X0242323Y0071757D02*
X0314990Y0071757D01*
X0318862Y0069358D02*
X0390701Y0069358D01*
X0390701Y0066960D02*
X0321708Y0066960D01*
X0322323Y0071757D02*
X0390701Y0071757D01*
X0390701Y0074155D02*
X0358779Y0074155D01*
X0361387Y0076554D02*
X0390701Y0076554D01*
X0390701Y0078952D02*
X0362119Y0078952D01*
X0362119Y0079365D02*
X0362119Y0079816D01*
X0361978Y0080706D01*
X0361700Y0081563D01*
X0361291Y0082366D01*
X0360761Y0083095D01*
X0360124Y0083732D01*
X0359395Y0084262D01*
X0358592Y0084671D01*
X0357735Y0084949D01*
X0356845Y0085090D01*
X0352869Y0085090D01*
X0352869Y0079365D01*
X0352869Y0079365D01*
X0362119Y0079365D01*
X0361769Y0081351D02*
X0390701Y0081351D01*
X0390701Y0083749D02*
X0360100Y0083749D01*
X0352869Y0083749D02*
X0352869Y0083749D01*
X0352869Y0081351D02*
X0352869Y0081351D01*
X0352869Y0078952D02*
X0352869Y0078952D01*
X0352869Y0076554D02*
X0352869Y0076554D01*
X0352869Y0074155D02*
X0352869Y0074155D01*
X0359048Y0064561D02*
X0390701Y0064561D01*
X0390701Y0062163D02*
X0361346Y0062163D01*
X0361919Y0059764D02*
X0390701Y0059764D01*
X0390701Y0057366D02*
X0361416Y0057366D01*
X0359453Y0054967D02*
X0390701Y0054967D01*
X0390701Y0095742D02*
X0360899Y0095742D01*
X0361919Y0098140D02*
X0390701Y0098140D01*
X0390701Y0100539D02*
X0361758Y0100539D01*
X0360321Y0102937D02*
X0390701Y0102937D01*
X0352869Y0124524D02*
X0352869Y0124524D01*
X0352869Y0126923D02*
X0352869Y0126923D01*
X0352869Y0129321D02*
X0352869Y0129321D01*
X0352869Y0131720D02*
X0352869Y0131720D01*
X0348991Y0165299D02*
X0323957Y0165299D01*
X0323519Y0167697D02*
X0347152Y0167697D01*
X0346589Y0170096D02*
X0321618Y0170096D01*
X0323060Y0172494D02*
X0346975Y0172494D01*
X0390701Y0191682D02*
X0242531Y0191682D01*
X0243951Y0194081D02*
X0390701Y0194081D01*
X0390701Y0196479D02*
X0244084Y0196479D01*
X0243063Y0198878D02*
X0390701Y0198878D01*
X0390701Y0201276D02*
X0241843Y0201276D01*
X0243602Y0203675D02*
X0390701Y0203675D01*
X0390701Y0206073D02*
X0243957Y0206073D01*
X0243198Y0208472D02*
X0390701Y0208472D01*
X0390701Y0210870D02*
X0241122Y0210870D01*
X0243434Y0213269D02*
X0390701Y0213269D01*
X0390701Y0215668D02*
X0243957Y0215668D01*
X0243366Y0218066D02*
X0390701Y0218066D01*
X0390701Y0220465D02*
X0356835Y0220465D01*
X0356458Y0220087D02*
X0358230Y0221860D01*
X0359189Y0224175D01*
X0359189Y0226681D01*
X0358230Y0228997D01*
X0356458Y0230769D01*
X0354142Y0231728D01*
X0351636Y0231728D01*
X0349320Y0230769D01*
X0347548Y0228997D01*
X0346589Y0226681D01*
X0346589Y0224175D01*
X0347548Y0221860D01*
X0349320Y0220087D01*
X0351636Y0219128D01*
X0354142Y0219128D01*
X0356458Y0220087D01*
X0358645Y0222863D02*
X0390701Y0222863D01*
X0390701Y0225262D02*
X0359189Y0225262D01*
X0358784Y0227660D02*
X0390701Y0227660D01*
X0390701Y0230059D02*
X0357168Y0230059D01*
X0348610Y0230059D02*
X0241679Y0230059D01*
X0241882Y0231665D02*
X0242572Y0231665D01*
X0243657Y0231449D01*
X0244741Y0231665D01*
X0245431Y0231665D01*
X0246069Y0231929D01*
X0247153Y0232144D01*
X0248073Y0232759D01*
X0248710Y0233023D01*
X0249198Y0233511D01*
X0250118Y0234125D01*
X0250732Y0235044D01*
X0251220Y0235532D01*
X0251484Y0236170D01*
X0252098Y0237089D01*
X0252314Y0238174D01*
X0252578Y0238811D01*
X0252578Y0239501D01*
X0252794Y0240586D01*
X0252578Y0241670D01*
X0252578Y0242360D01*
X0252314Y0242998D01*
X0252098Y0244082D01*
X0251484Y0245002D01*
X0251220Y0245639D01*
X0250732Y0246127D01*
X0250118Y0247047D01*
X0249198Y0247661D01*
X0248710Y0248149D01*
X0248073Y0248413D01*
X0247153Y0249027D01*
X0246069Y0249243D01*
X0245431Y0249507D01*
X0244741Y0249507D01*
X0243657Y0249723D01*
X0242572Y0249507D01*
X0241882Y0249507D01*
X0241245Y0249243D01*
X0240160Y0249027D01*
X0239241Y0248413D01*
X0238603Y0248149D01*
X0238115Y0247661D01*
X0237196Y0247047D01*
X0236581Y0246127D01*
X0236094Y0245639D01*
X0235830Y0245002D01*
X0235215Y0244082D01*
X0234999Y0242998D01*
X0234735Y0242360D01*
X0234735Y0241670D01*
X0234520Y0240586D01*
X0234735Y0239501D01*
X0234735Y0238811D01*
X0234999Y0238174D01*
X0235215Y0237089D01*
X0235830Y0236170D01*
X0236094Y0235532D01*
X0236581Y0235044D01*
X0237196Y0234125D01*
X0238115Y0233511D01*
X0238603Y0233023D01*
X0239241Y0232759D01*
X0240160Y0232144D01*
X0241245Y0231929D01*
X0241882Y0231665D01*
X0239692Y0232457D02*
X0023808Y0232457D01*
X0024211Y0234856D02*
X0236708Y0234856D01*
X0235182Y0237254D02*
X0024211Y0237254D01*
X0024364Y0239653D02*
X0234705Y0239653D01*
X0234735Y0242051D02*
X0024711Y0242051D01*
X0024528Y0244450D02*
X0235461Y0244450D01*
X0237063Y0246848D02*
X0024211Y0246848D01*
X0024211Y0249247D02*
X0241253Y0249247D01*
X0246060Y0249247D02*
X0311253Y0249247D01*
X0311245Y0249243D02*
X0310160Y0249027D01*
X0309241Y0248413D01*
X0308603Y0248149D01*
X0308115Y0247661D01*
X0307196Y0247047D01*
X0306581Y0246127D01*
X0306094Y0245639D01*
X0305830Y0245002D01*
X0305215Y0244082D01*
X0304999Y0242998D01*
X0304735Y0242360D01*
X0304735Y0241670D01*
X0304520Y0240586D01*
X0304735Y0239501D01*
X0304735Y0238811D01*
X0304999Y0238174D01*
X0305215Y0237089D01*
X0305830Y0236170D01*
X0306094Y0235532D01*
X0306581Y0235044D01*
X0307196Y0234125D01*
X0308115Y0233511D01*
X0308603Y0233023D01*
X0309241Y0232759D01*
X0310160Y0232144D01*
X0311245Y0231929D01*
X0311882Y0231665D01*
X0312572Y0231665D01*
X0313657Y0231449D01*
X0314741Y0231665D01*
X0315431Y0231665D01*
X0316069Y0231929D01*
X0317153Y0232144D01*
X0318073Y0232759D01*
X0318710Y0233023D01*
X0319198Y0233511D01*
X0320118Y0234125D01*
X0320732Y0235044D01*
X0321220Y0235532D01*
X0321484Y0236170D01*
X0322098Y0237089D01*
X0322314Y0238174D01*
X0322578Y0238811D01*
X0322578Y0239501D01*
X0322794Y0240586D01*
X0322578Y0241670D01*
X0322578Y0242360D01*
X0322314Y0242998D01*
X0322098Y0244082D01*
X0321484Y0245002D01*
X0321220Y0245639D01*
X0320732Y0246127D01*
X0320118Y0247047D01*
X0319198Y0247661D01*
X0318710Y0248149D01*
X0318073Y0248413D01*
X0317153Y0249027D01*
X0316069Y0249243D01*
X0315431Y0249507D01*
X0314741Y0249507D01*
X0313657Y0249723D01*
X0312572Y0249507D01*
X0311882Y0249507D01*
X0311245Y0249243D01*
X0316060Y0249247D02*
X0373890Y0249247D01*
X0373890Y0251645D02*
X0024211Y0251645D01*
X0007400Y0230059D02*
X0235634Y0230059D01*
X0233779Y0227660D02*
X0007400Y0227660D01*
X0007400Y0225262D02*
X0233357Y0225262D01*
X0234048Y0222863D02*
X0007400Y0222863D01*
X0007400Y0220465D02*
X0236585Y0220465D01*
X0233947Y0218066D02*
X0007400Y0218066D01*
X0007400Y0215668D02*
X0233357Y0215668D01*
X0233880Y0213269D02*
X0216909Y0213269D01*
X0216610Y0213568D02*
X0214515Y0214435D01*
X0212247Y0214435D01*
X0210152Y0213568D01*
X0208549Y0211964D01*
X0207681Y0209869D01*
X0207681Y0207602D01*
X0208549Y0205507D01*
X0210152Y0203903D01*
X0210557Y0203735D01*
X0210152Y0203568D01*
X0208549Y0201964D01*
X0207681Y0199869D01*
X0207681Y0197602D01*
X0208549Y0195507D01*
X0210152Y0193903D01*
X0210557Y0193735D01*
X0210152Y0193568D01*
X0208549Y0191964D01*
X0207681Y0189869D01*
X0207681Y0187602D01*
X0208549Y0185507D01*
X0210152Y0183903D01*
X0210359Y0183817D01*
X0210289Y0183782D01*
X0209537Y0183236D01*
X0208881Y0182579D01*
X0208335Y0181828D01*
X0207913Y0181000D01*
X0207626Y0180117D01*
X0207481Y0179200D01*
X0207481Y0178735D01*
X0207481Y0178271D01*
X0207626Y0177354D01*
X0207913Y0176471D01*
X0208335Y0175643D01*
X0208881Y0174892D01*
X0209537Y0174235D01*
X0210289Y0173689D01*
X0210359Y0173653D01*
X0210152Y0173568D01*
X0208549Y0171964D01*
X0207681Y0169869D01*
X0207681Y0167602D01*
X0208549Y0165507D01*
X0210152Y0163903D01*
X0210557Y0163735D01*
X0210152Y0163568D01*
X0208549Y0161964D01*
X0207681Y0159869D01*
X0207681Y0157602D01*
X0208549Y0155507D01*
X0210152Y0153903D01*
X0210557Y0153735D01*
X0210152Y0153568D01*
X0208549Y0151964D01*
X0207681Y0149869D01*
X0207681Y0147602D01*
X0208549Y0145507D01*
X0210152Y0143903D01*
X0210557Y0143735D01*
X0210152Y0143568D01*
X0208549Y0141964D01*
X0207681Y0139869D01*
X0207681Y0137602D01*
X0208549Y0135507D01*
X0210152Y0133903D01*
X0210557Y0133735D01*
X0210152Y0133568D01*
X0208549Y0131964D01*
X0207681Y0129869D01*
X0207681Y0127602D01*
X0208549Y0125507D01*
X0210152Y0123903D01*
X0210557Y0123735D01*
X0210152Y0123568D01*
X0208549Y0121964D01*
X0207681Y0119869D01*
X0207681Y0117602D01*
X0208549Y0115507D01*
X0210152Y0113903D01*
X0212247Y0113035D01*
X0214515Y0113035D01*
X0216610Y0113903D01*
X0218213Y0115507D01*
X0219081Y0117602D01*
X0219081Y0119869D01*
X0218213Y0121964D01*
X0216610Y0123568D01*
X0216205Y0123735D01*
X0216610Y0123903D01*
X0218213Y0125507D01*
X0219081Y0127602D01*
X0219081Y0129869D01*
X0218213Y0131964D01*
X0216610Y0133568D01*
X0216205Y0133735D01*
X0216610Y0133903D01*
X0218213Y0135507D01*
X0219081Y0137602D01*
X0219081Y0139869D01*
X0218213Y0141964D01*
X0216610Y0143568D01*
X0216205Y0143735D01*
X0216610Y0143903D01*
X0218213Y0145507D01*
X0219081Y0147602D01*
X0219081Y0149869D01*
X0218213Y0151964D01*
X0216610Y0153568D01*
X0216205Y0153735D01*
X0216610Y0153903D01*
X0218213Y0155507D01*
X0219081Y0157602D01*
X0219081Y0159869D01*
X0218213Y0161964D01*
X0216610Y0163568D01*
X0216205Y0163735D01*
X0216610Y0163903D01*
X0218213Y0165507D01*
X0219081Y0167602D01*
X0219081Y0169869D01*
X0218213Y0171964D01*
X0216610Y0173568D01*
X0216403Y0173653D01*
X0216473Y0173689D01*
X0217225Y0174235D01*
X0217881Y0174892D01*
X0218427Y0175643D01*
X0218849Y0176471D01*
X0219136Y0177354D01*
X0219281Y0178271D01*
X0219281Y0178735D01*
X0213381Y0178735D01*
X0207481Y0178735D01*
X0213381Y0178735D01*
X0213381Y0178735D01*
X0213381Y0178735D01*
X0219281Y0178735D01*
X0219281Y0179200D01*
X0219136Y0180117D01*
X0218849Y0181000D01*
X0218427Y0181828D01*
X0217881Y0182579D01*
X0217225Y0183236D01*
X0216473Y0183782D01*
X0216403Y0183817D01*
X0216610Y0183903D01*
X0218213Y0185507D01*
X0219081Y0187602D01*
X0219081Y0189869D01*
X0218213Y0191964D01*
X0216610Y0193568D01*
X0216205Y0193735D01*
X0216610Y0193903D01*
X0218213Y0195507D01*
X0219081Y0197602D01*
X0219081Y0199869D01*
X0218213Y0201964D01*
X0216610Y0203568D01*
X0216205Y0203735D01*
X0216610Y0203903D01*
X0218213Y0205507D01*
X0219081Y0207602D01*
X0219081Y0209869D01*
X0218213Y0211964D01*
X0216610Y0213568D01*
X0218666Y0210870D02*
X0236191Y0210870D01*
X0234116Y0208472D02*
X0219081Y0208472D01*
X0218448Y0206073D02*
X0233357Y0206073D01*
X0233712Y0203675D02*
X0216351Y0203675D01*
X0218498Y0201276D02*
X0235471Y0201276D01*
X0234250Y0198878D02*
X0219081Y0198878D01*
X0218616Y0196479D02*
X0233230Y0196479D01*
X0233363Y0194081D02*
X0216788Y0194081D01*
X0218330Y0191682D02*
X0234782Y0191682D01*
X0234859Y0189284D02*
X0219081Y0189284D01*
X0218784Y0186885D02*
X0233458Y0186885D01*
X0233375Y0184487D02*
X0217194Y0184487D01*
X0218238Y0182088D02*
X0234659Y0182088D01*
X0235265Y0179690D02*
X0219203Y0179690D01*
X0219116Y0177291D02*
X0233626Y0177291D01*
X0233357Y0174893D02*
X0217882Y0174893D01*
X0217683Y0172494D02*
X0234253Y0172494D01*
X0235695Y0170096D02*
X0218987Y0170096D01*
X0219081Y0167697D02*
X0233795Y0167697D01*
X0233357Y0165299D02*
X0218005Y0165299D01*
X0217277Y0162900D02*
X0234032Y0162900D01*
X0236675Y0160502D02*
X0218819Y0160502D01*
X0219081Y0158103D02*
X0233963Y0158103D01*
X0233357Y0155705D02*
X0218295Y0155705D01*
X0216871Y0153306D02*
X0233864Y0153306D01*
X0236101Y0150908D02*
X0218651Y0150908D01*
X0219081Y0148509D02*
X0234131Y0148509D01*
X0233357Y0146111D02*
X0218464Y0146111D01*
X0216261Y0143712D02*
X0233696Y0143712D01*
X0235434Y0141314D02*
X0218483Y0141314D01*
X0219081Y0138915D02*
X0234491Y0138915D01*
X0233357Y0136517D02*
X0218632Y0136517D01*
X0216825Y0134118D02*
X0233528Y0134118D01*
X0235028Y0131720D02*
X0218315Y0131720D01*
X0219081Y0129321D02*
X0234897Y0129321D01*
X0233474Y0126923D02*
X0218800Y0126923D01*
X0217231Y0124524D02*
X0233360Y0124524D01*
X0234622Y0122126D02*
X0218052Y0122126D01*
X0219081Y0119727D02*
X0235303Y0119727D01*
X0233642Y0117329D02*
X0218968Y0117329D01*
X0217637Y0114930D02*
X0233357Y0114930D01*
X0234216Y0112532D02*
X0029164Y0112532D01*
X0029136Y0112354D02*
X0029281Y0113271D01*
X0029281Y0113735D01*
X0023381Y0113735D01*
X0017481Y0113735D01*
X0017481Y0113271D01*
X0017626Y0112354D01*
X0017913Y0111471D01*
X0018335Y0110643D01*
X0018881Y0109892D01*
X0019538Y0109235D01*
X0020289Y0108689D01*
X0020359Y0108653D01*
X0020152Y0108568D01*
X0018549Y0106964D01*
X0017681Y0104869D01*
X0017681Y0102602D01*
X0018549Y0100507D01*
X0020152Y0098903D01*
X0022247Y0098035D01*
X0024515Y0098035D01*
X0026610Y0098903D01*
X0028213Y0100507D01*
X0029081Y0102602D01*
X0029081Y0104869D01*
X0028213Y0106964D01*
X0026610Y0108568D01*
X0026403Y0108653D01*
X0026473Y0108689D01*
X0027225Y0109235D01*
X0027881Y0109892D01*
X0028427Y0110643D01*
X0028849Y0111471D01*
X0029136Y0112354D01*
X0029281Y0113735D02*
X0029281Y0114200D01*
X0029136Y0115117D01*
X0028849Y0116000D01*
X0028427Y0116828D01*
X0027881Y0117579D01*
X0027225Y0118236D01*
X0026537Y0118735D01*
X0027225Y0119235D01*
X0027881Y0119892D01*
X0028427Y0120643D01*
X0028849Y0121471D01*
X0029136Y0122354D01*
X0029281Y0123271D01*
X0029281Y0123735D01*
X0023381Y0123735D01*
X0023381Y0123735D01*
X0023381Y0119635D01*
X0023381Y0113736D01*
X0023381Y0113736D01*
X0023381Y0123735D01*
X0017481Y0123735D01*
X0017481Y0123271D01*
X0017626Y0122354D01*
X0017913Y0121471D01*
X0018335Y0120643D01*
X0018881Y0119892D01*
X0019538Y0119235D01*
X0020225Y0118735D01*
X0019538Y0118236D01*
X0018881Y0117579D01*
X0018335Y0116828D01*
X0017913Y0116000D01*
X0017626Y0115117D01*
X0017481Y0114200D01*
X0017481Y0113735D01*
X0023381Y0113735D01*
X0023381Y0113735D01*
X0023381Y0113735D01*
X0029281Y0113735D01*
X0029165Y0114930D02*
X0209125Y0114930D01*
X0207794Y0117329D02*
X0028063Y0117329D01*
X0027717Y0119727D02*
X0207681Y0119727D01*
X0208710Y0122126D02*
X0029062Y0122126D01*
X0029281Y0123735D02*
X0029281Y0124200D01*
X0029136Y0125117D01*
X0028849Y0126000D01*
X0028427Y0126828D01*
X0027881Y0127579D01*
X0027225Y0128236D01*
X0026473Y0128782D01*
X0026403Y0128817D01*
X0026610Y0128903D01*
X0028213Y0130507D01*
X0029081Y0132602D01*
X0029081Y0134869D01*
X0028213Y0136964D01*
X0026610Y0138568D01*
X0026205Y0138735D01*
X0026610Y0138903D01*
X0028213Y0140507D01*
X0029081Y0142602D01*
X0029081Y0144869D01*
X0028213Y0146964D01*
X0026610Y0148568D01*
X0026205Y0148735D01*
X0026610Y0148903D01*
X0028213Y0150507D01*
X0029081Y0152602D01*
X0029081Y0154869D01*
X0028213Y0156964D01*
X0026610Y0158568D01*
X0026205Y0158735D01*
X0026610Y0158903D01*
X0028213Y0160507D01*
X0029081Y0162602D01*
X0029081Y0164869D01*
X0028213Y0166964D01*
X0026610Y0168568D01*
X0026205Y0168735D01*
X0026610Y0168903D01*
X0028213Y0170507D01*
X0029081Y0172602D01*
X0029081Y0174869D01*
X0028213Y0176964D01*
X0026610Y0178568D01*
X0024515Y0179435D01*
X0022247Y0179435D01*
X0020152Y0178568D01*
X0018549Y0176964D01*
X0017681Y0174869D01*
X0017681Y0172602D01*
X0018549Y0170507D01*
X0020152Y0168903D01*
X0020557Y0168735D01*
X0020152Y0168568D01*
X0018549Y0166964D01*
X0017681Y0164869D01*
X0017681Y0162602D01*
X0018549Y0160507D01*
X0020152Y0158903D01*
X0020557Y0158735D01*
X0020152Y0158568D01*
X0018549Y0156964D01*
X0017681Y0154869D01*
X0017681Y0152602D01*
X0018549Y0150507D01*
X0020152Y0148903D01*
X0020557Y0148735D01*
X0020152Y0148568D01*
X0018549Y0146964D01*
X0017681Y0144869D01*
X0017681Y0142602D01*
X0018549Y0140507D01*
X0020152Y0138903D01*
X0020557Y0138735D01*
X0020152Y0138568D01*
X0018549Y0136964D01*
X0017681Y0134869D01*
X0017681Y0132602D01*
X0018549Y0130507D01*
X0020152Y0128903D01*
X0020359Y0128817D01*
X0020289Y0128782D01*
X0019538Y0128236D01*
X0018881Y0127579D01*
X0018335Y0126828D01*
X0017913Y0126000D01*
X0017626Y0125117D01*
X0017481Y0124200D01*
X0017481Y0123735D01*
X0023381Y0123735D01*
X0023381Y0123735D01*
X0023381Y0123735D01*
X0029281Y0123735D01*
X0029230Y0124524D02*
X0209531Y0124524D01*
X0207962Y0126923D02*
X0028358Y0126923D01*
X0027028Y0129321D02*
X0207681Y0129321D01*
X0208448Y0131720D02*
X0028716Y0131720D01*
X0029081Y0134118D02*
X0209937Y0134118D01*
X0208131Y0136517D02*
X0028399Y0136517D01*
X0026622Y0138915D02*
X0207681Y0138915D01*
X0208279Y0141314D02*
X0028548Y0141314D01*
X0029081Y0143712D02*
X0210501Y0143712D01*
X0208299Y0146111D02*
X0028567Y0146111D01*
X0026668Y0148509D02*
X0207681Y0148509D01*
X0208111Y0150908D02*
X0028379Y0150908D01*
X0029081Y0153306D02*
X0209891Y0153306D01*
X0208467Y0155705D02*
X0028735Y0155705D01*
X0027074Y0158103D02*
X0207681Y0158103D01*
X0207943Y0160502D02*
X0028208Y0160502D01*
X0029081Y0162900D02*
X0209485Y0162900D01*
X0208757Y0165299D02*
X0028903Y0165299D01*
X0027480Y0167697D02*
X0207681Y0167697D01*
X0207775Y0170096D02*
X0027802Y0170096D01*
X0029037Y0172494D02*
X0209079Y0172494D01*
X0208880Y0174893D02*
X0029071Y0174893D01*
X0027886Y0177291D02*
X0207647Y0177291D01*
X0207559Y0179690D02*
X0007400Y0179690D01*
X0007400Y0182088D02*
X0208524Y0182088D01*
X0209569Y0184487D02*
X0007400Y0184487D01*
X0007400Y0186885D02*
X0207978Y0186885D01*
X0207681Y0189284D02*
X0028198Y0189284D01*
X0028220Y0189306D02*
X0028510Y0189808D01*
X0028660Y0190367D01*
X0028660Y0193657D01*
X0028660Y0196946D01*
X0028510Y0197506D01*
X0028220Y0198008D01*
X0027811Y0198417D01*
X0027309Y0198707D01*
X0026749Y0198857D01*
X0025731Y0198857D01*
X0028460Y0201586D01*
X0028460Y0205728D01*
X0025531Y0208657D01*
X0021389Y0208657D01*
X0018460Y0205728D01*
X0018460Y0201586D01*
X0021189Y0198857D01*
X0020170Y0198857D01*
X0019611Y0198707D01*
X0019109Y0198417D01*
X0018699Y0198008D01*
X0018410Y0197506D01*
X0018260Y0196946D01*
X0018260Y0193657D01*
X0023460Y0193657D01*
X0028660Y0193657D01*
X0023460Y0193657D01*
X0023460Y0193657D01*
X0023460Y0193657D01*
X0023460Y0188457D01*
X0026749Y0188457D01*
X0027309Y0188607D01*
X0027811Y0188896D01*
X0028220Y0189306D01*
X0028660Y0191682D02*
X0208432Y0191682D01*
X0209975Y0194081D02*
X0028660Y0194081D01*
X0028660Y0196479D02*
X0208146Y0196479D01*
X0207681Y0198878D02*
X0025752Y0198878D01*
X0028151Y0201276D02*
X0208264Y0201276D01*
X0210411Y0203675D02*
X0028460Y0203675D01*
X0028114Y0206073D02*
X0208314Y0206073D01*
X0207681Y0208472D02*
X0025716Y0208472D01*
X0021204Y0208472D02*
X0007400Y0208472D01*
X0007400Y0210870D02*
X0208096Y0210870D01*
X0209854Y0213269D02*
X0007400Y0213269D01*
X0007400Y0206073D02*
X0018806Y0206073D01*
X0018460Y0203675D02*
X0007400Y0203675D01*
X0007400Y0201276D02*
X0018769Y0201276D01*
X0021168Y0198878D02*
X0007400Y0198878D01*
X0007400Y0196479D02*
X0018260Y0196479D01*
X0018260Y0194081D02*
X0007400Y0194081D01*
X0007400Y0191682D02*
X0018260Y0191682D01*
X0018260Y0190367D02*
X0018410Y0189808D01*
X0018699Y0189306D01*
X0019109Y0188896D01*
X0019611Y0188607D01*
X0020170Y0188457D01*
X0023460Y0188457D01*
X0023460Y0193657D01*
X0023460Y0193657D01*
X0018260Y0193657D01*
X0018260Y0190367D01*
X0018721Y0189284D02*
X0007400Y0189284D01*
X0007400Y0177291D02*
X0018876Y0177291D01*
X0017691Y0174893D02*
X0007400Y0174893D01*
X0007400Y0172494D02*
X0017726Y0172494D01*
X0018960Y0170096D02*
X0007400Y0170096D01*
X0007400Y0167697D02*
X0019282Y0167697D01*
X0017859Y0165299D02*
X0007400Y0165299D01*
X0007400Y0162900D02*
X0017681Y0162900D01*
X0018554Y0160502D02*
X0007400Y0160502D01*
X0007400Y0158103D02*
X0019688Y0158103D01*
X0018027Y0155705D02*
X0007400Y0155705D01*
X0007400Y0153306D02*
X0017681Y0153306D01*
X0018383Y0150908D02*
X0007400Y0150908D01*
X0007400Y0148509D02*
X0020094Y0148509D01*
X0018195Y0146111D02*
X0007400Y0146111D01*
X0007400Y0143712D02*
X0017681Y0143712D01*
X0018215Y0141314D02*
X0007400Y0141314D01*
X0007400Y0138915D02*
X0020140Y0138915D01*
X0018363Y0136517D02*
X0007400Y0136517D01*
X0007400Y0134118D02*
X0017681Y0134118D01*
X0018046Y0131720D02*
X0007400Y0131720D01*
X0007400Y0129321D02*
X0019734Y0129321D01*
X0018404Y0126923D02*
X0007400Y0126923D01*
X0007400Y0124524D02*
X0017532Y0124524D01*
X0017701Y0122126D02*
X0007400Y0122126D01*
X0007400Y0119727D02*
X0019046Y0119727D01*
X0018699Y0117329D02*
X0007400Y0117329D01*
X0007400Y0114930D02*
X0017597Y0114930D01*
X0017598Y0112532D02*
X0007400Y0112532D01*
X0007400Y0110133D02*
X0018706Y0110133D01*
X0019319Y0107734D02*
X0007400Y0107734D01*
X0007400Y0105336D02*
X0017874Y0105336D01*
X0017681Y0102937D02*
X0007400Y0102937D01*
X0007400Y0100539D02*
X0018535Y0100539D01*
X0021994Y0098140D02*
X0007400Y0098140D01*
X0007400Y0095742D02*
X0208043Y0095742D01*
X0207681Y0093343D02*
X0007400Y0093343D01*
X0007400Y0090945D02*
X0208367Y0090945D01*
X0209725Y0098140D02*
X0024768Y0098140D01*
X0028227Y0100539D02*
X0208535Y0100539D01*
X0207681Y0102937D02*
X0029081Y0102937D01*
X0028888Y0105336D02*
X0207874Y0105336D01*
X0209319Y0107734D02*
X0027443Y0107734D01*
X0028057Y0110133D02*
X0235785Y0110133D01*
X0233810Y0107734D02*
X0217443Y0107734D01*
X0218888Y0105336D02*
X0233357Y0105336D01*
X0234017Y0102937D02*
X0219081Y0102937D01*
X0218227Y0100539D02*
X0236765Y0100539D01*
X0233978Y0098140D02*
X0217037Y0098140D01*
X0218720Y0095742D02*
X0233357Y0095742D01*
X0233849Y0093343D02*
X0219081Y0093343D01*
X0218395Y0090945D02*
X0236011Y0090945D01*
X0234146Y0088546D02*
X0216631Y0088546D01*
X0218551Y0086148D02*
X0233357Y0086148D01*
X0233681Y0083749D02*
X0219081Y0083749D01*
X0218563Y0081351D02*
X0235396Y0081351D01*
X0234528Y0078952D02*
X0216659Y0078952D01*
X0218383Y0076554D02*
X0233357Y0076554D01*
X0233513Y0074155D02*
X0219081Y0074155D01*
X0218731Y0071757D02*
X0234990Y0071757D01*
X0219081Y0064561D02*
X0304174Y0064561D01*
X0303519Y0062163D02*
X0218899Y0062163D01*
X0217471Y0059764D02*
X0303457Y0059764D01*
X0303960Y0057366D02*
X0217812Y0057366D01*
X0219040Y0054967D02*
X0305123Y0054967D01*
X0307249Y0052569D02*
X0219067Y0052569D01*
X0218215Y0066960D02*
X0305606Y0066960D01*
X0308451Y0069358D02*
X0217065Y0069358D01*
X0240728Y0220465D02*
X0348943Y0220465D01*
X0347132Y0222863D02*
X0243266Y0222863D01*
X0243957Y0225262D02*
X0346589Y0225262D01*
X0346994Y0227660D02*
X0243534Y0227660D01*
X0247621Y0232457D02*
X0309692Y0232457D01*
X0306708Y0234856D02*
X0250606Y0234856D01*
X0252131Y0237254D02*
X0305182Y0237254D01*
X0304705Y0239653D02*
X0252608Y0239653D01*
X0252578Y0242051D02*
X0304735Y0242051D01*
X0305461Y0244450D02*
X0251853Y0244450D01*
X0250250Y0246848D02*
X0307063Y0246848D01*
X0320250Y0246848D02*
X0373890Y0246848D01*
X0373573Y0244450D02*
X0321853Y0244450D01*
X0322578Y0242051D02*
X0373390Y0242051D01*
X0373737Y0239653D02*
X0322608Y0239653D01*
X0322131Y0237254D02*
X0373890Y0237254D01*
X0373890Y0234856D02*
X0320606Y0234856D01*
X0317621Y0232457D02*
X0374293Y0232457D01*
X0023460Y0191682D02*
X0023460Y0191682D01*
X0023460Y0189284D02*
X0023460Y0189284D01*
X0023381Y0122126D02*
X0023381Y0122126D01*
X0023381Y0119727D02*
X0023381Y0119727D01*
X0023381Y0117329D02*
X0023381Y0117329D01*
X0023381Y0114930D02*
X0023381Y0114930D01*
D18*
X0318657Y0096586D02*
X0318657Y0095586D01*
X0318657Y0095086D01*
M02*
