%
M48
M72
T01C0.03937
T02C0.04000
T03C0.04400
T04C0.04700
T05C0.09843
T06C0.10000
T07C0.11000
%
T01
X238657Y75586
X238657Y85586
X238657Y95586
X238657Y105586
X238657Y115586
X238657Y125586
X238657Y135586
X238657Y145586
X238657Y155586
X238657Y165586
X238657Y175586
X238657Y185586
X238657Y195586
X238657Y205586
X238657Y215586
X238657Y225586
X318657Y185586
X318657Y175586
X318657Y165586
X318657Y155586
X318657Y145586
X318657Y135586
X318657Y125586
X318657Y115586
X318657Y105586
X318657Y95586
X318657Y85586
X318657Y75586
T02
X213381Y73735
X213381Y63735
X213381Y53735
X213381Y43735
X213381Y33735
X213381Y83735
X213381Y93735
X213381Y103735
X213381Y118735
X213381Y128735
X213381Y138735
X213381Y148735
X213381Y158735
X213381Y168735
X213381Y178735
X213381Y188735
X213381Y198735
X213381Y208735
X23460Y203657
X23460Y193657
X23381Y173735
X23381Y163735
X23381Y153735
X23381Y143735
X23381Y133735
X23381Y123735
X23381Y113735
X23381Y103735
X23381Y83735
X23381Y73735
X23381Y63735
X23381Y53735
X23381Y43735
X23381Y33735
T03
X352889Y170310
X352889Y225428
T04
X352869Y147869
X352869Y128184
X352869Y99050
X352869Y79365
X352869Y59680
X352869Y39995
T05
X313657Y240586
X243657Y240586
T06
X313657Y60586
T07
X14011Y14011
X14011Y242357
X384090Y242357
X384090Y14011
M30
