G75*
%MOIN*%
%OFA0B0*%
%FSLAX25Y25*%
%IPPOS*%
%LPD*%
%AMOC8*
5,1,8,0,0,1.08239X$1,22.5*
%
%ADD10C,0.00000*%
D10*
X0002200Y0002200D02*
X0002200Y0258106D01*
X0395901Y0258106D01*
X0395901Y0002200D01*
X0002200Y0002200D01*
X0008511Y0014011D02*
X0008513Y0014159D01*
X0008519Y0014307D01*
X0008529Y0014455D01*
X0008543Y0014603D01*
X0008561Y0014750D01*
X0008583Y0014897D01*
X0008609Y0015043D01*
X0008638Y0015188D01*
X0008672Y0015333D01*
X0008710Y0015476D01*
X0008751Y0015619D01*
X0008796Y0015760D01*
X0008846Y0015900D01*
X0008898Y0016038D01*
X0008955Y0016176D01*
X0009015Y0016311D01*
X0009079Y0016445D01*
X0009146Y0016577D01*
X0009217Y0016707D01*
X0009292Y0016836D01*
X0009370Y0016962D01*
X0009451Y0017086D01*
X0009535Y0017208D01*
X0009623Y0017327D01*
X0009714Y0017444D01*
X0009808Y0017559D01*
X0009906Y0017671D01*
X0010006Y0017780D01*
X0010109Y0017887D01*
X0010215Y0017991D01*
X0010323Y0018092D01*
X0010435Y0018190D01*
X0010549Y0018285D01*
X0010665Y0018376D01*
X0010784Y0018465D01*
X0010905Y0018550D01*
X0011029Y0018632D01*
X0011155Y0018711D01*
X0011282Y0018786D01*
X0011412Y0018858D01*
X0011544Y0018927D01*
X0011677Y0018991D01*
X0011812Y0019052D01*
X0011949Y0019110D01*
X0012087Y0019164D01*
X0012227Y0019214D01*
X0012368Y0019260D01*
X0012510Y0019302D01*
X0012653Y0019341D01*
X0012797Y0019375D01*
X0012943Y0019406D01*
X0013088Y0019433D01*
X0013235Y0019456D01*
X0013382Y0019475D01*
X0013530Y0019490D01*
X0013677Y0019501D01*
X0013826Y0019508D01*
X0013974Y0019511D01*
X0014122Y0019510D01*
X0014270Y0019505D01*
X0014418Y0019496D01*
X0014566Y0019483D01*
X0014714Y0019466D01*
X0014860Y0019445D01*
X0015007Y0019420D01*
X0015152Y0019391D01*
X0015297Y0019359D01*
X0015440Y0019322D01*
X0015583Y0019282D01*
X0015725Y0019237D01*
X0015865Y0019189D01*
X0016004Y0019137D01*
X0016141Y0019082D01*
X0016277Y0019022D01*
X0016412Y0018959D01*
X0016544Y0018893D01*
X0016675Y0018823D01*
X0016804Y0018749D01*
X0016930Y0018672D01*
X0017055Y0018592D01*
X0017177Y0018508D01*
X0017298Y0018421D01*
X0017415Y0018331D01*
X0017531Y0018237D01*
X0017643Y0018141D01*
X0017753Y0018042D01*
X0017861Y0017939D01*
X0017965Y0017834D01*
X0018067Y0017726D01*
X0018165Y0017615D01*
X0018261Y0017502D01*
X0018354Y0017386D01*
X0018443Y0017268D01*
X0018529Y0017147D01*
X0018612Y0017024D01*
X0018692Y0016899D01*
X0018768Y0016772D01*
X0018841Y0016642D01*
X0018910Y0016511D01*
X0018975Y0016378D01*
X0019038Y0016244D01*
X0019096Y0016107D01*
X0019151Y0015969D01*
X0019201Y0015830D01*
X0019249Y0015689D01*
X0019292Y0015548D01*
X0019332Y0015405D01*
X0019367Y0015261D01*
X0019399Y0015116D01*
X0019427Y0014970D01*
X0019451Y0014824D01*
X0019471Y0014677D01*
X0019487Y0014529D01*
X0019499Y0014382D01*
X0019507Y0014233D01*
X0019511Y0014085D01*
X0019511Y0013937D01*
X0019507Y0013789D01*
X0019499Y0013640D01*
X0019487Y0013493D01*
X0019471Y0013345D01*
X0019451Y0013198D01*
X0019427Y0013052D01*
X0019399Y0012906D01*
X0019367Y0012761D01*
X0019332Y0012617D01*
X0019292Y0012474D01*
X0019249Y0012333D01*
X0019201Y0012192D01*
X0019151Y0012053D01*
X0019096Y0011915D01*
X0019038Y0011778D01*
X0018975Y0011644D01*
X0018910Y0011511D01*
X0018841Y0011380D01*
X0018768Y0011250D01*
X0018692Y0011123D01*
X0018612Y0010998D01*
X0018529Y0010875D01*
X0018443Y0010754D01*
X0018354Y0010636D01*
X0018261Y0010520D01*
X0018165Y0010407D01*
X0018067Y0010296D01*
X0017965Y0010188D01*
X0017861Y0010083D01*
X0017753Y0009980D01*
X0017643Y0009881D01*
X0017531Y0009785D01*
X0017415Y0009691D01*
X0017298Y0009601D01*
X0017177Y0009514D01*
X0017055Y0009430D01*
X0016930Y0009350D01*
X0016804Y0009273D01*
X0016675Y0009199D01*
X0016544Y0009129D01*
X0016412Y0009063D01*
X0016277Y0009000D01*
X0016141Y0008940D01*
X0016004Y0008885D01*
X0015865Y0008833D01*
X0015725Y0008785D01*
X0015583Y0008740D01*
X0015440Y0008700D01*
X0015297Y0008663D01*
X0015152Y0008631D01*
X0015007Y0008602D01*
X0014860Y0008577D01*
X0014714Y0008556D01*
X0014566Y0008539D01*
X0014418Y0008526D01*
X0014270Y0008517D01*
X0014122Y0008512D01*
X0013974Y0008511D01*
X0013826Y0008514D01*
X0013677Y0008521D01*
X0013530Y0008532D01*
X0013382Y0008547D01*
X0013235Y0008566D01*
X0013088Y0008589D01*
X0012943Y0008616D01*
X0012797Y0008647D01*
X0012653Y0008681D01*
X0012510Y0008720D01*
X0012368Y0008762D01*
X0012227Y0008808D01*
X0012087Y0008858D01*
X0011949Y0008912D01*
X0011812Y0008970D01*
X0011677Y0009031D01*
X0011544Y0009095D01*
X0011412Y0009164D01*
X0011282Y0009236D01*
X0011155Y0009311D01*
X0011029Y0009390D01*
X0010905Y0009472D01*
X0010784Y0009557D01*
X0010665Y0009646D01*
X0010549Y0009737D01*
X0010435Y0009832D01*
X0010323Y0009930D01*
X0010215Y0010031D01*
X0010109Y0010135D01*
X0010006Y0010242D01*
X0009906Y0010351D01*
X0009808Y0010463D01*
X0009714Y0010578D01*
X0009623Y0010695D01*
X0009535Y0010814D01*
X0009451Y0010936D01*
X0009370Y0011060D01*
X0009292Y0011186D01*
X0009217Y0011315D01*
X0009146Y0011445D01*
X0009079Y0011577D01*
X0009015Y0011711D01*
X0008955Y0011846D01*
X0008898Y0011984D01*
X0008846Y0012122D01*
X0008796Y0012262D01*
X0008751Y0012403D01*
X0008710Y0012546D01*
X0008672Y0012689D01*
X0008638Y0012834D01*
X0008609Y0012979D01*
X0008583Y0013125D01*
X0008561Y0013272D01*
X0008543Y0013419D01*
X0008529Y0013567D01*
X0008519Y0013715D01*
X0008513Y0013863D01*
X0008511Y0014011D01*
X0008511Y0242357D02*
X0008513Y0242505D01*
X0008519Y0242653D01*
X0008529Y0242801D01*
X0008543Y0242949D01*
X0008561Y0243096D01*
X0008583Y0243243D01*
X0008609Y0243389D01*
X0008638Y0243534D01*
X0008672Y0243679D01*
X0008710Y0243822D01*
X0008751Y0243965D01*
X0008796Y0244106D01*
X0008846Y0244246D01*
X0008898Y0244384D01*
X0008955Y0244522D01*
X0009015Y0244657D01*
X0009079Y0244791D01*
X0009146Y0244923D01*
X0009217Y0245053D01*
X0009292Y0245182D01*
X0009370Y0245308D01*
X0009451Y0245432D01*
X0009535Y0245554D01*
X0009623Y0245673D01*
X0009714Y0245790D01*
X0009808Y0245905D01*
X0009906Y0246017D01*
X0010006Y0246126D01*
X0010109Y0246233D01*
X0010215Y0246337D01*
X0010323Y0246438D01*
X0010435Y0246536D01*
X0010549Y0246631D01*
X0010665Y0246722D01*
X0010784Y0246811D01*
X0010905Y0246896D01*
X0011029Y0246978D01*
X0011155Y0247057D01*
X0011282Y0247132D01*
X0011412Y0247204D01*
X0011544Y0247273D01*
X0011677Y0247337D01*
X0011812Y0247398D01*
X0011949Y0247456D01*
X0012087Y0247510D01*
X0012227Y0247560D01*
X0012368Y0247606D01*
X0012510Y0247648D01*
X0012653Y0247687D01*
X0012797Y0247721D01*
X0012943Y0247752D01*
X0013088Y0247779D01*
X0013235Y0247802D01*
X0013382Y0247821D01*
X0013530Y0247836D01*
X0013677Y0247847D01*
X0013826Y0247854D01*
X0013974Y0247857D01*
X0014122Y0247856D01*
X0014270Y0247851D01*
X0014418Y0247842D01*
X0014566Y0247829D01*
X0014714Y0247812D01*
X0014860Y0247791D01*
X0015007Y0247766D01*
X0015152Y0247737D01*
X0015297Y0247705D01*
X0015440Y0247668D01*
X0015583Y0247628D01*
X0015725Y0247583D01*
X0015865Y0247535D01*
X0016004Y0247483D01*
X0016141Y0247428D01*
X0016277Y0247368D01*
X0016412Y0247305D01*
X0016544Y0247239D01*
X0016675Y0247169D01*
X0016804Y0247095D01*
X0016930Y0247018D01*
X0017055Y0246938D01*
X0017177Y0246854D01*
X0017298Y0246767D01*
X0017415Y0246677D01*
X0017531Y0246583D01*
X0017643Y0246487D01*
X0017753Y0246388D01*
X0017861Y0246285D01*
X0017965Y0246180D01*
X0018067Y0246072D01*
X0018165Y0245961D01*
X0018261Y0245848D01*
X0018354Y0245732D01*
X0018443Y0245614D01*
X0018529Y0245493D01*
X0018612Y0245370D01*
X0018692Y0245245D01*
X0018768Y0245118D01*
X0018841Y0244988D01*
X0018910Y0244857D01*
X0018975Y0244724D01*
X0019038Y0244590D01*
X0019096Y0244453D01*
X0019151Y0244315D01*
X0019201Y0244176D01*
X0019249Y0244035D01*
X0019292Y0243894D01*
X0019332Y0243751D01*
X0019367Y0243607D01*
X0019399Y0243462D01*
X0019427Y0243316D01*
X0019451Y0243170D01*
X0019471Y0243023D01*
X0019487Y0242875D01*
X0019499Y0242728D01*
X0019507Y0242579D01*
X0019511Y0242431D01*
X0019511Y0242283D01*
X0019507Y0242135D01*
X0019499Y0241986D01*
X0019487Y0241839D01*
X0019471Y0241691D01*
X0019451Y0241544D01*
X0019427Y0241398D01*
X0019399Y0241252D01*
X0019367Y0241107D01*
X0019332Y0240963D01*
X0019292Y0240820D01*
X0019249Y0240679D01*
X0019201Y0240538D01*
X0019151Y0240399D01*
X0019096Y0240261D01*
X0019038Y0240124D01*
X0018975Y0239990D01*
X0018910Y0239857D01*
X0018841Y0239726D01*
X0018768Y0239596D01*
X0018692Y0239469D01*
X0018612Y0239344D01*
X0018529Y0239221D01*
X0018443Y0239100D01*
X0018354Y0238982D01*
X0018261Y0238866D01*
X0018165Y0238753D01*
X0018067Y0238642D01*
X0017965Y0238534D01*
X0017861Y0238429D01*
X0017753Y0238326D01*
X0017643Y0238227D01*
X0017531Y0238131D01*
X0017415Y0238037D01*
X0017298Y0237947D01*
X0017177Y0237860D01*
X0017055Y0237776D01*
X0016930Y0237696D01*
X0016804Y0237619D01*
X0016675Y0237545D01*
X0016544Y0237475D01*
X0016412Y0237409D01*
X0016277Y0237346D01*
X0016141Y0237286D01*
X0016004Y0237231D01*
X0015865Y0237179D01*
X0015725Y0237131D01*
X0015583Y0237086D01*
X0015440Y0237046D01*
X0015297Y0237009D01*
X0015152Y0236977D01*
X0015007Y0236948D01*
X0014860Y0236923D01*
X0014714Y0236902D01*
X0014566Y0236885D01*
X0014418Y0236872D01*
X0014270Y0236863D01*
X0014122Y0236858D01*
X0013974Y0236857D01*
X0013826Y0236860D01*
X0013677Y0236867D01*
X0013530Y0236878D01*
X0013382Y0236893D01*
X0013235Y0236912D01*
X0013088Y0236935D01*
X0012943Y0236962D01*
X0012797Y0236993D01*
X0012653Y0237027D01*
X0012510Y0237066D01*
X0012368Y0237108D01*
X0012227Y0237154D01*
X0012087Y0237204D01*
X0011949Y0237258D01*
X0011812Y0237316D01*
X0011677Y0237377D01*
X0011544Y0237441D01*
X0011412Y0237510D01*
X0011282Y0237582D01*
X0011155Y0237657D01*
X0011029Y0237736D01*
X0010905Y0237818D01*
X0010784Y0237903D01*
X0010665Y0237992D01*
X0010549Y0238083D01*
X0010435Y0238178D01*
X0010323Y0238276D01*
X0010215Y0238377D01*
X0010109Y0238481D01*
X0010006Y0238588D01*
X0009906Y0238697D01*
X0009808Y0238809D01*
X0009714Y0238924D01*
X0009623Y0239041D01*
X0009535Y0239160D01*
X0009451Y0239282D01*
X0009370Y0239406D01*
X0009292Y0239532D01*
X0009217Y0239661D01*
X0009146Y0239791D01*
X0009079Y0239923D01*
X0009015Y0240057D01*
X0008955Y0240192D01*
X0008898Y0240330D01*
X0008846Y0240468D01*
X0008796Y0240608D01*
X0008751Y0240749D01*
X0008710Y0240892D01*
X0008672Y0241035D01*
X0008638Y0241180D01*
X0008609Y0241325D01*
X0008583Y0241471D01*
X0008561Y0241618D01*
X0008543Y0241765D01*
X0008529Y0241913D01*
X0008519Y0242061D01*
X0008513Y0242209D01*
X0008511Y0242357D01*
X0308657Y0060586D02*
X0308659Y0060727D01*
X0308665Y0060868D01*
X0308675Y0061008D01*
X0308689Y0061148D01*
X0308707Y0061288D01*
X0308728Y0061427D01*
X0308754Y0061566D01*
X0308783Y0061704D01*
X0308817Y0061840D01*
X0308854Y0061976D01*
X0308895Y0062111D01*
X0308940Y0062245D01*
X0308989Y0062377D01*
X0309041Y0062508D01*
X0309097Y0062637D01*
X0309157Y0062764D01*
X0309220Y0062890D01*
X0309286Y0063014D01*
X0309357Y0063137D01*
X0309430Y0063257D01*
X0309507Y0063375D01*
X0309587Y0063491D01*
X0309671Y0063604D01*
X0309757Y0063715D01*
X0309847Y0063824D01*
X0309940Y0063930D01*
X0310035Y0064033D01*
X0310134Y0064134D01*
X0310235Y0064232D01*
X0310339Y0064327D01*
X0310446Y0064419D01*
X0310555Y0064508D01*
X0310667Y0064593D01*
X0310781Y0064676D01*
X0310897Y0064756D01*
X0311016Y0064832D01*
X0311137Y0064904D01*
X0311259Y0064974D01*
X0311384Y0065039D01*
X0311510Y0065102D01*
X0311638Y0065160D01*
X0311768Y0065215D01*
X0311899Y0065267D01*
X0312032Y0065314D01*
X0312166Y0065358D01*
X0312301Y0065399D01*
X0312437Y0065435D01*
X0312574Y0065467D01*
X0312712Y0065496D01*
X0312850Y0065521D01*
X0312990Y0065541D01*
X0313130Y0065558D01*
X0313270Y0065571D01*
X0313411Y0065580D01*
X0313551Y0065585D01*
X0313692Y0065586D01*
X0313833Y0065583D01*
X0313974Y0065576D01*
X0314114Y0065565D01*
X0314254Y0065550D01*
X0314394Y0065531D01*
X0314533Y0065509D01*
X0314671Y0065482D01*
X0314809Y0065452D01*
X0314945Y0065417D01*
X0315081Y0065379D01*
X0315215Y0065337D01*
X0315349Y0065291D01*
X0315481Y0065242D01*
X0315611Y0065188D01*
X0315740Y0065131D01*
X0315867Y0065071D01*
X0315993Y0065007D01*
X0316116Y0064939D01*
X0316238Y0064868D01*
X0316358Y0064794D01*
X0316475Y0064716D01*
X0316590Y0064635D01*
X0316703Y0064551D01*
X0316814Y0064464D01*
X0316922Y0064373D01*
X0317027Y0064280D01*
X0317130Y0064183D01*
X0317230Y0064084D01*
X0317327Y0063982D01*
X0317421Y0063877D01*
X0317512Y0063770D01*
X0317600Y0063660D01*
X0317685Y0063548D01*
X0317767Y0063433D01*
X0317846Y0063316D01*
X0317921Y0063197D01*
X0317993Y0063076D01*
X0318061Y0062953D01*
X0318126Y0062828D01*
X0318188Y0062701D01*
X0318245Y0062572D01*
X0318300Y0062442D01*
X0318350Y0062311D01*
X0318397Y0062178D01*
X0318440Y0062044D01*
X0318479Y0061908D01*
X0318514Y0061772D01*
X0318546Y0061635D01*
X0318573Y0061497D01*
X0318597Y0061358D01*
X0318617Y0061218D01*
X0318633Y0061078D01*
X0318645Y0060938D01*
X0318653Y0060797D01*
X0318657Y0060656D01*
X0318657Y0060516D01*
X0318653Y0060375D01*
X0318645Y0060234D01*
X0318633Y0060094D01*
X0318617Y0059954D01*
X0318597Y0059814D01*
X0318573Y0059675D01*
X0318546Y0059537D01*
X0318514Y0059400D01*
X0318479Y0059264D01*
X0318440Y0059128D01*
X0318397Y0058994D01*
X0318350Y0058861D01*
X0318300Y0058730D01*
X0318245Y0058600D01*
X0318188Y0058471D01*
X0318126Y0058344D01*
X0318061Y0058219D01*
X0317993Y0058096D01*
X0317921Y0057975D01*
X0317846Y0057856D01*
X0317767Y0057739D01*
X0317685Y0057624D01*
X0317600Y0057512D01*
X0317512Y0057402D01*
X0317421Y0057295D01*
X0317327Y0057190D01*
X0317230Y0057088D01*
X0317130Y0056989D01*
X0317027Y0056892D01*
X0316922Y0056799D01*
X0316814Y0056708D01*
X0316703Y0056621D01*
X0316590Y0056537D01*
X0316475Y0056456D01*
X0316358Y0056378D01*
X0316238Y0056304D01*
X0316116Y0056233D01*
X0315993Y0056165D01*
X0315867Y0056101D01*
X0315740Y0056041D01*
X0315611Y0055984D01*
X0315481Y0055930D01*
X0315349Y0055881D01*
X0315215Y0055835D01*
X0315081Y0055793D01*
X0314945Y0055755D01*
X0314809Y0055720D01*
X0314671Y0055690D01*
X0314533Y0055663D01*
X0314394Y0055641D01*
X0314254Y0055622D01*
X0314114Y0055607D01*
X0313974Y0055596D01*
X0313833Y0055589D01*
X0313692Y0055586D01*
X0313551Y0055587D01*
X0313411Y0055592D01*
X0313270Y0055601D01*
X0313130Y0055614D01*
X0312990Y0055631D01*
X0312850Y0055651D01*
X0312712Y0055676D01*
X0312574Y0055705D01*
X0312437Y0055737D01*
X0312301Y0055773D01*
X0312166Y0055814D01*
X0312032Y0055858D01*
X0311899Y0055905D01*
X0311768Y0055957D01*
X0311638Y0056012D01*
X0311510Y0056070D01*
X0311384Y0056133D01*
X0311259Y0056198D01*
X0311137Y0056268D01*
X0311016Y0056340D01*
X0310897Y0056416D01*
X0310781Y0056496D01*
X0310667Y0056579D01*
X0310555Y0056664D01*
X0310446Y0056753D01*
X0310339Y0056845D01*
X0310235Y0056940D01*
X0310134Y0057038D01*
X0310035Y0057139D01*
X0309940Y0057242D01*
X0309847Y0057348D01*
X0309757Y0057457D01*
X0309671Y0057568D01*
X0309587Y0057681D01*
X0309507Y0057797D01*
X0309430Y0057915D01*
X0309357Y0058035D01*
X0309286Y0058158D01*
X0309220Y0058282D01*
X0309157Y0058408D01*
X0309097Y0058535D01*
X0309041Y0058664D01*
X0308989Y0058795D01*
X0308940Y0058927D01*
X0308895Y0059061D01*
X0308854Y0059196D01*
X0308817Y0059332D01*
X0308783Y0059468D01*
X0308754Y0059606D01*
X0308728Y0059745D01*
X0308707Y0059884D01*
X0308689Y0060024D01*
X0308675Y0060164D01*
X0308665Y0060304D01*
X0308659Y0060445D01*
X0308657Y0060586D01*
X0378590Y0014011D02*
X0378592Y0014159D01*
X0378598Y0014307D01*
X0378608Y0014455D01*
X0378622Y0014603D01*
X0378640Y0014750D01*
X0378662Y0014897D01*
X0378688Y0015043D01*
X0378717Y0015188D01*
X0378751Y0015333D01*
X0378789Y0015476D01*
X0378830Y0015619D01*
X0378875Y0015760D01*
X0378925Y0015900D01*
X0378977Y0016038D01*
X0379034Y0016176D01*
X0379094Y0016311D01*
X0379158Y0016445D01*
X0379225Y0016577D01*
X0379296Y0016707D01*
X0379371Y0016836D01*
X0379449Y0016962D01*
X0379530Y0017086D01*
X0379614Y0017208D01*
X0379702Y0017327D01*
X0379793Y0017444D01*
X0379887Y0017559D01*
X0379985Y0017671D01*
X0380085Y0017780D01*
X0380188Y0017887D01*
X0380294Y0017991D01*
X0380402Y0018092D01*
X0380514Y0018190D01*
X0380628Y0018285D01*
X0380744Y0018376D01*
X0380863Y0018465D01*
X0380984Y0018550D01*
X0381108Y0018632D01*
X0381234Y0018711D01*
X0381361Y0018786D01*
X0381491Y0018858D01*
X0381623Y0018927D01*
X0381756Y0018991D01*
X0381891Y0019052D01*
X0382028Y0019110D01*
X0382166Y0019164D01*
X0382306Y0019214D01*
X0382447Y0019260D01*
X0382589Y0019302D01*
X0382732Y0019341D01*
X0382876Y0019375D01*
X0383022Y0019406D01*
X0383167Y0019433D01*
X0383314Y0019456D01*
X0383461Y0019475D01*
X0383609Y0019490D01*
X0383756Y0019501D01*
X0383905Y0019508D01*
X0384053Y0019511D01*
X0384201Y0019510D01*
X0384349Y0019505D01*
X0384497Y0019496D01*
X0384645Y0019483D01*
X0384793Y0019466D01*
X0384939Y0019445D01*
X0385086Y0019420D01*
X0385231Y0019391D01*
X0385376Y0019359D01*
X0385519Y0019322D01*
X0385662Y0019282D01*
X0385804Y0019237D01*
X0385944Y0019189D01*
X0386083Y0019137D01*
X0386220Y0019082D01*
X0386356Y0019022D01*
X0386491Y0018959D01*
X0386623Y0018893D01*
X0386754Y0018823D01*
X0386883Y0018749D01*
X0387009Y0018672D01*
X0387134Y0018592D01*
X0387256Y0018508D01*
X0387377Y0018421D01*
X0387494Y0018331D01*
X0387610Y0018237D01*
X0387722Y0018141D01*
X0387832Y0018042D01*
X0387940Y0017939D01*
X0388044Y0017834D01*
X0388146Y0017726D01*
X0388244Y0017615D01*
X0388340Y0017502D01*
X0388433Y0017386D01*
X0388522Y0017268D01*
X0388608Y0017147D01*
X0388691Y0017024D01*
X0388771Y0016899D01*
X0388847Y0016772D01*
X0388920Y0016642D01*
X0388989Y0016511D01*
X0389054Y0016378D01*
X0389117Y0016244D01*
X0389175Y0016107D01*
X0389230Y0015969D01*
X0389280Y0015830D01*
X0389328Y0015689D01*
X0389371Y0015548D01*
X0389411Y0015405D01*
X0389446Y0015261D01*
X0389478Y0015116D01*
X0389506Y0014970D01*
X0389530Y0014824D01*
X0389550Y0014677D01*
X0389566Y0014529D01*
X0389578Y0014382D01*
X0389586Y0014233D01*
X0389590Y0014085D01*
X0389590Y0013937D01*
X0389586Y0013789D01*
X0389578Y0013640D01*
X0389566Y0013493D01*
X0389550Y0013345D01*
X0389530Y0013198D01*
X0389506Y0013052D01*
X0389478Y0012906D01*
X0389446Y0012761D01*
X0389411Y0012617D01*
X0389371Y0012474D01*
X0389328Y0012333D01*
X0389280Y0012192D01*
X0389230Y0012053D01*
X0389175Y0011915D01*
X0389117Y0011778D01*
X0389054Y0011644D01*
X0388989Y0011511D01*
X0388920Y0011380D01*
X0388847Y0011250D01*
X0388771Y0011123D01*
X0388691Y0010998D01*
X0388608Y0010875D01*
X0388522Y0010754D01*
X0388433Y0010636D01*
X0388340Y0010520D01*
X0388244Y0010407D01*
X0388146Y0010296D01*
X0388044Y0010188D01*
X0387940Y0010083D01*
X0387832Y0009980D01*
X0387722Y0009881D01*
X0387610Y0009785D01*
X0387494Y0009691D01*
X0387377Y0009601D01*
X0387256Y0009514D01*
X0387134Y0009430D01*
X0387009Y0009350D01*
X0386883Y0009273D01*
X0386754Y0009199D01*
X0386623Y0009129D01*
X0386491Y0009063D01*
X0386356Y0009000D01*
X0386220Y0008940D01*
X0386083Y0008885D01*
X0385944Y0008833D01*
X0385804Y0008785D01*
X0385662Y0008740D01*
X0385519Y0008700D01*
X0385376Y0008663D01*
X0385231Y0008631D01*
X0385086Y0008602D01*
X0384939Y0008577D01*
X0384793Y0008556D01*
X0384645Y0008539D01*
X0384497Y0008526D01*
X0384349Y0008517D01*
X0384201Y0008512D01*
X0384053Y0008511D01*
X0383905Y0008514D01*
X0383756Y0008521D01*
X0383609Y0008532D01*
X0383461Y0008547D01*
X0383314Y0008566D01*
X0383167Y0008589D01*
X0383022Y0008616D01*
X0382876Y0008647D01*
X0382732Y0008681D01*
X0382589Y0008720D01*
X0382447Y0008762D01*
X0382306Y0008808D01*
X0382166Y0008858D01*
X0382028Y0008912D01*
X0381891Y0008970D01*
X0381756Y0009031D01*
X0381623Y0009095D01*
X0381491Y0009164D01*
X0381361Y0009236D01*
X0381234Y0009311D01*
X0381108Y0009390D01*
X0380984Y0009472D01*
X0380863Y0009557D01*
X0380744Y0009646D01*
X0380628Y0009737D01*
X0380514Y0009832D01*
X0380402Y0009930D01*
X0380294Y0010031D01*
X0380188Y0010135D01*
X0380085Y0010242D01*
X0379985Y0010351D01*
X0379887Y0010463D01*
X0379793Y0010578D01*
X0379702Y0010695D01*
X0379614Y0010814D01*
X0379530Y0010936D01*
X0379449Y0011060D01*
X0379371Y0011186D01*
X0379296Y0011315D01*
X0379225Y0011445D01*
X0379158Y0011577D01*
X0379094Y0011711D01*
X0379034Y0011846D01*
X0378977Y0011984D01*
X0378925Y0012122D01*
X0378875Y0012262D01*
X0378830Y0012403D01*
X0378789Y0012546D01*
X0378751Y0012689D01*
X0378717Y0012834D01*
X0378688Y0012979D01*
X0378662Y0013125D01*
X0378640Y0013272D01*
X0378622Y0013419D01*
X0378608Y0013567D01*
X0378598Y0013715D01*
X0378592Y0013863D01*
X0378590Y0014011D01*
X0378590Y0242357D02*
X0378592Y0242505D01*
X0378598Y0242653D01*
X0378608Y0242801D01*
X0378622Y0242949D01*
X0378640Y0243096D01*
X0378662Y0243243D01*
X0378688Y0243389D01*
X0378717Y0243534D01*
X0378751Y0243679D01*
X0378789Y0243822D01*
X0378830Y0243965D01*
X0378875Y0244106D01*
X0378925Y0244246D01*
X0378977Y0244384D01*
X0379034Y0244522D01*
X0379094Y0244657D01*
X0379158Y0244791D01*
X0379225Y0244923D01*
X0379296Y0245053D01*
X0379371Y0245182D01*
X0379449Y0245308D01*
X0379530Y0245432D01*
X0379614Y0245554D01*
X0379702Y0245673D01*
X0379793Y0245790D01*
X0379887Y0245905D01*
X0379985Y0246017D01*
X0380085Y0246126D01*
X0380188Y0246233D01*
X0380294Y0246337D01*
X0380402Y0246438D01*
X0380514Y0246536D01*
X0380628Y0246631D01*
X0380744Y0246722D01*
X0380863Y0246811D01*
X0380984Y0246896D01*
X0381108Y0246978D01*
X0381234Y0247057D01*
X0381361Y0247132D01*
X0381491Y0247204D01*
X0381623Y0247273D01*
X0381756Y0247337D01*
X0381891Y0247398D01*
X0382028Y0247456D01*
X0382166Y0247510D01*
X0382306Y0247560D01*
X0382447Y0247606D01*
X0382589Y0247648D01*
X0382732Y0247687D01*
X0382876Y0247721D01*
X0383022Y0247752D01*
X0383167Y0247779D01*
X0383314Y0247802D01*
X0383461Y0247821D01*
X0383609Y0247836D01*
X0383756Y0247847D01*
X0383905Y0247854D01*
X0384053Y0247857D01*
X0384201Y0247856D01*
X0384349Y0247851D01*
X0384497Y0247842D01*
X0384645Y0247829D01*
X0384793Y0247812D01*
X0384939Y0247791D01*
X0385086Y0247766D01*
X0385231Y0247737D01*
X0385376Y0247705D01*
X0385519Y0247668D01*
X0385662Y0247628D01*
X0385804Y0247583D01*
X0385944Y0247535D01*
X0386083Y0247483D01*
X0386220Y0247428D01*
X0386356Y0247368D01*
X0386491Y0247305D01*
X0386623Y0247239D01*
X0386754Y0247169D01*
X0386883Y0247095D01*
X0387009Y0247018D01*
X0387134Y0246938D01*
X0387256Y0246854D01*
X0387377Y0246767D01*
X0387494Y0246677D01*
X0387610Y0246583D01*
X0387722Y0246487D01*
X0387832Y0246388D01*
X0387940Y0246285D01*
X0388044Y0246180D01*
X0388146Y0246072D01*
X0388244Y0245961D01*
X0388340Y0245848D01*
X0388433Y0245732D01*
X0388522Y0245614D01*
X0388608Y0245493D01*
X0388691Y0245370D01*
X0388771Y0245245D01*
X0388847Y0245118D01*
X0388920Y0244988D01*
X0388989Y0244857D01*
X0389054Y0244724D01*
X0389117Y0244590D01*
X0389175Y0244453D01*
X0389230Y0244315D01*
X0389280Y0244176D01*
X0389328Y0244035D01*
X0389371Y0243894D01*
X0389411Y0243751D01*
X0389446Y0243607D01*
X0389478Y0243462D01*
X0389506Y0243316D01*
X0389530Y0243170D01*
X0389550Y0243023D01*
X0389566Y0242875D01*
X0389578Y0242728D01*
X0389586Y0242579D01*
X0389590Y0242431D01*
X0389590Y0242283D01*
X0389586Y0242135D01*
X0389578Y0241986D01*
X0389566Y0241839D01*
X0389550Y0241691D01*
X0389530Y0241544D01*
X0389506Y0241398D01*
X0389478Y0241252D01*
X0389446Y0241107D01*
X0389411Y0240963D01*
X0389371Y0240820D01*
X0389328Y0240679D01*
X0389280Y0240538D01*
X0389230Y0240399D01*
X0389175Y0240261D01*
X0389117Y0240124D01*
X0389054Y0239990D01*
X0388989Y0239857D01*
X0388920Y0239726D01*
X0388847Y0239596D01*
X0388771Y0239469D01*
X0388691Y0239344D01*
X0388608Y0239221D01*
X0388522Y0239100D01*
X0388433Y0238982D01*
X0388340Y0238866D01*
X0388244Y0238753D01*
X0388146Y0238642D01*
X0388044Y0238534D01*
X0387940Y0238429D01*
X0387832Y0238326D01*
X0387722Y0238227D01*
X0387610Y0238131D01*
X0387494Y0238037D01*
X0387377Y0237947D01*
X0387256Y0237860D01*
X0387134Y0237776D01*
X0387009Y0237696D01*
X0386883Y0237619D01*
X0386754Y0237545D01*
X0386623Y0237475D01*
X0386491Y0237409D01*
X0386356Y0237346D01*
X0386220Y0237286D01*
X0386083Y0237231D01*
X0385944Y0237179D01*
X0385804Y0237131D01*
X0385662Y0237086D01*
X0385519Y0237046D01*
X0385376Y0237009D01*
X0385231Y0236977D01*
X0385086Y0236948D01*
X0384939Y0236923D01*
X0384793Y0236902D01*
X0384645Y0236885D01*
X0384497Y0236872D01*
X0384349Y0236863D01*
X0384201Y0236858D01*
X0384053Y0236857D01*
X0383905Y0236860D01*
X0383756Y0236867D01*
X0383609Y0236878D01*
X0383461Y0236893D01*
X0383314Y0236912D01*
X0383167Y0236935D01*
X0383022Y0236962D01*
X0382876Y0236993D01*
X0382732Y0237027D01*
X0382589Y0237066D01*
X0382447Y0237108D01*
X0382306Y0237154D01*
X0382166Y0237204D01*
X0382028Y0237258D01*
X0381891Y0237316D01*
X0381756Y0237377D01*
X0381623Y0237441D01*
X0381491Y0237510D01*
X0381361Y0237582D01*
X0381234Y0237657D01*
X0381108Y0237736D01*
X0380984Y0237818D01*
X0380863Y0237903D01*
X0380744Y0237992D01*
X0380628Y0238083D01*
X0380514Y0238178D01*
X0380402Y0238276D01*
X0380294Y0238377D01*
X0380188Y0238481D01*
X0380085Y0238588D01*
X0379985Y0238697D01*
X0379887Y0238809D01*
X0379793Y0238924D01*
X0379702Y0239041D01*
X0379614Y0239160D01*
X0379530Y0239282D01*
X0379449Y0239406D01*
X0379371Y0239532D01*
X0379296Y0239661D01*
X0379225Y0239791D01*
X0379158Y0239923D01*
X0379094Y0240057D01*
X0379034Y0240192D01*
X0378977Y0240330D01*
X0378925Y0240468D01*
X0378875Y0240608D01*
X0378830Y0240749D01*
X0378789Y0240892D01*
X0378751Y0241035D01*
X0378717Y0241180D01*
X0378688Y0241325D01*
X0378662Y0241471D01*
X0378640Y0241618D01*
X0378622Y0241765D01*
X0378608Y0241913D01*
X0378598Y0242061D01*
X0378592Y0242209D01*
X0378590Y0242357D01*
M02*
